<?xml version="1.0" encoding="utf-8"?>
<!-- Generator: Adobe Illustrator 22.1.0, SVG Export Plug-In . SVG Version: 6.00 Build 0)  -->
<svg version="1.1" id="Layer_1" xmlns="http://www.w3.org/2000/svg" xmlns:xlink="http://www.w3.org/1999/xlink" x="0px" y="0px"
	 viewBox="0 0 2090.4 374.7" style="enable-background:new 0 0 2090.4 374.7;" xml:space="preserve">
<style type="text/css">
	.st0{fill:#FFFFFF;}
	.st1{clip-path:url(#SVGID_2_);}
	.st2{fill:url(#SVGID_3_);}
	.st3{fill:none;stroke:#3CB47E;stroke-miterlimit:10;}
	.st4{fill:none;stroke:#3CB47E;stroke-width:2;stroke-miterlimit:10;}
</style>
<g>
	<path class="st0" d="M2090.4,0C1668.2,0,1246,0,823.7,0c31.2,124.9,62.3,249.7,93.5,374.6h1173.3V0z"/>
</g>
<g>
	<defs>
		<polygon id="SVGID_1_" points="917.2,374.7 0,374.7 0,0.1 823.7,0.1 		"/>
	</defs>
	<clipPath id="SVGID_2_">
		<use xlink:href="#SVGID_1_"  style="overflow:visible;"/>
	</clipPath>
	<g class="st1">
		<linearGradient id="SVGID_3_" gradientUnits="userSpaceOnUse" x1="458.8333" y1="-65.9987" x2="458.8333" y2="585.1382">
			<stop  offset="0" style="stop-color:#8FEBA6"/>
			<stop  offset="1" style="stop-color:#49D696"/>
		</linearGradient>
		<polygon class="st2" points="917.2,374.7 0.5,374.7 0.5,0.1 823.7,0.1 		"/>
	</g>
	<g class="st1">
		<path class="st3" d="M723.7,52.4c-100.1,0-181.5,81.5-181.5,181.8c0,100.2,81.4,181.8,181.5,181.8c100.1,0,181.5-81.5,181.5-181.8
			C905.2,134,823.8,52.4,723.7,52.4z M838.4,349.1c-30.6,30.7-71.4,47.6-114.7,47.6c-89.4,0-162.2-72.9-162.2-162.4
			c0-89.6,72.8-162.5,162.2-162.5c89.4,0,162.2,72.9,162.2,162.5C885.9,277.6,869,318.4,838.4,349.1z"/>
		<g>
			<g>
				<path class="st4" d="M773.3,117.6c1.5,3.5,1.8,8.2-5.5,10.6c-3.5,0.8-7,1.6-10.7,2.4c-13.6,3.1-27.5,6.3-41.3,9.7
					c-13.8,2-17.5-10-13.4-16.5c2-3.2,4.4-4,6.8-4.8c6.4-1.6,12.9-3.1,19.4-4.6c-12.4,1.8-16.8-9-12.6-13.9c1.3-1.4,2.9-2,4.2-2.4
					c2.3-0.5,4.6-1.1,6.9-1.6c11.3-1.6,18.2,8.2,14.2,13.3c-1.3,1.6-3.3,2.2-4.7,2.8c3.1-0.8,6.3-1.5,9.4-2.2
					c3.3-0.7,6.4-1.4,9.5-2.1C767.9,106.8,773.2,117.5,773.3,117.6"/>
				<path class="st4" d="M822.1,271.7c-0.3,3.1-2.1,10.6-11.1,13.7c-3.7,0.8-7.5,1.7-11.4,2.5c-3.8,0.8-7.5,1.7-11.3,2.6
					c13.9-1.7,15.2,12,9.9,19.1c-2.6,3.5-5.2,4.4-7.7,5.3c-3,0.7-5.9,1.3-8.9,2c-13,1.7-15.4-11.7-10.9-18.5
					c2.5-3.7,5.2-4.7,7.9-5.6c-7.8,1.8-15.5,3.7-23.3,5.6c-15.6,2.2-20.6-14.6-13-23.1c2.3-2.6,4.9-3.5,7.1-4.2
					c15.6-3.8,31.4-7.5,46.8-11c4.1-0.9,8.2-1.8,12.1-2.7C823.4,255.7,822.1,271.5,822.1,271.7"/>
				<path class="st4" d="M806.9,188.1c0.4,3.2,0.4,10.9-9.2,14.2c-4.2,0.9-8.5,1.9-12.9,2.9c-15.7,3.6-31.8,7.3-47.8,11.2
					c-16.8,2.3-22.4-15.3-14.4-24.2c2.3-2.5,4.9-3.4,7.1-4.2c15.6-3.8,31.2-7.5,46.6-11c4.3-1,8.5-1.9,12.6-2.8
					C804.1,172.6,806.8,188,806.9,188.1"/>
				<path class="st4" d="M717.6,156.2c0.4,4.1-1.3,7.7-5.2,10.8c13.3,2.6,13.9,16.9,6.1,22.7c-1.3,1-3.3,1.7-4.7,2.2
					c-3.4,0.8-6.8,1.7-10.1,2.5c-15.3,2.2-18.3-13.1-12.4-20.4c0.7-0.8,1.9-1.8,2.7-2.5c-12.4-2.6-12-15.8-4.4-21.3
					c1.1-0.8,2.9-1.5,4.2-2c3-0.7,6-1.5,9-2.2C715.9,144.1,717.6,156,717.6,156.2"/>
				<path class="st4" d="M835.7,213.2c0.7,7.2-3.2,10.9-4.5,12.1c12.5,4.6,10.5,22.3,1.9,26.4c-0.6,0.3-1.5,0.5-2.1,0.8
					c-2.9,0.6-5.8,1.2-8.8,1.8c-13.1,1.2-17-14.5-10.8-22.7c0.6-0.9,1.8-1.9,2.7-2.7c-13.9-4.2-13-22.6-4.3-26.8
					c0.6-0.3,1.6-0.6,2.3-0.8c3.1-0.7,6.1-1.3,9.1-1.9C833.9,198.3,835.7,213,835.7,213.2"/>
				<path class="st4" d="M805.7,135.6c1.8,3.5,2.8,9.9-4.3,11.9c-2.7,0.6-5.5,1.2-8.5,1.8c-11.7,1.8-21.3-11.4-16.2-18.5
					c1.5-2.1,3.4-2.6,4.7-3c2.7-0.6,5.3-1.1,7.9-1.7C796.7,125,803.4,131,805.7,135.6"/>
				<path class="st4" d="M744.7,262.1c0.5,4.3-0.9,12.2-9.9,15c-3.3,0.8-6.7,1.7-10,2.5c-13.1,2.6-20.8-12-14.3-21.4
					c2.5-3.6,5.8-4.7,7.4-5.1c3.4-0.9,6.9-1.7,10.3-2.6C738.2,248.5,743.9,256.1,744.7,262.1"/>
				<path class="st4" d="M793,389.9"/>
			</g>
			<path class="st4" d="M773.2,117.9c1.5,3.5,1.8,8.2-5.5,10.6c-3.5,0.8-7,1.6-10.7,2.4c-13.6,3.1-27.5,6.3-41.3,9.7
				c-13.8,2-17.5-10-13.4-16.5c2-3.2,4.4-4,6.8-4.8c6.4-1.6,12.9-3.1,19.4-4.6c-12.4,1.8-16.8-9-12.6-13.9c1.3-1.4,2.9-2,4.2-2.4
				c2.3-0.5,4.6-1.1,6.9-1.6c11.3-1.6,18.2,8.2,14.2,13.3c-1.3,1.6-3.3,2.2-4.7,2.8c3.1-0.8,6.3-1.5,9.4-2.2
				c3.3-0.7,6.4-1.4,9.5-2.1C767.8,107,773.1,117.8,773.2,117.9"/>
			<path class="st4" d="M822.1,271.9c-0.3,3.1-2.1,10.6-11.1,13.7c-3.7,0.8-7.5,1.7-11.4,2.5c-3.8,0.8-7.5,1.7-11.3,2.6
				c13.9-1.7,15.2,12,9.9,19.1c-2.6,3.5-5.2,4.4-7.7,5.3c-3,0.7-5.9,1.3-8.9,2c-13,1.7-15.4-11.7-10.9-18.5c2.5-3.7,5.2-4.7,7.9-5.6
				c-7.8,1.8-15.5,3.7-23.3,5.6c-15.6,2.2-20.6-14.6-13-23.1c2.3-2.6,4.9-3.5,7.1-4.2c15.6-3.8,31.4-7.5,46.8-11
				c4.1-0.9,8.2-1.8,12.1-2.7C823.3,255.9,822.1,271.7,822.1,271.9"/>
			<path class="st4" d="M806.8,188.4c0.4,3.2,0.4,10.9-9.2,14.2c-4.2,0.9-8.5,1.9-12.9,2.9c-15.7,3.6-31.8,7.3-47.8,11.2
				c-16.8,2.3-22.4-15.3-14.4-24.2c2.3-2.5,4.9-3.4,7.1-4.2c15.6-3.8,31.2-7.5,46.6-11c4.3-1,8.5-1.9,12.6-2.8
				C804,172.8,806.8,188.2,806.8,188.4"/>
			<path class="st4" d="M717.5,156.4c0.4,4.1-1.3,7.7-5.2,10.8c13.3,2.6,13.9,16.9,6.1,22.7c-1.3,1-3.3,1.7-4.7,2.2
				c-3.4,0.8-6.8,1.7-10.1,2.5c-15.3,2.2-18.3-13.1-12.4-20.4c0.7-0.8,1.9-1.8,2.7-2.5c-12.4-2.6-12-15.8-4.4-21.3
				c1.1-0.8,2.9-1.5,4.2-2c3-0.7,6-1.5,9-2.2C715.8,144.4,717.5,156.3,717.5,156.4"/>
			<path class="st4" d="M835.7,213.4c0.7,7.2-3.2,10.9-4.5,12.1c12.5,4.6,10.5,22.3,1.9,26.4c-0.6,0.3-1.5,0.5-2.1,0.8
				c-2.9,0.6-5.8,1.2-8.8,1.8c-13.1,1.2-17-14.5-10.8-22.7c0.6-0.9,1.8-1.9,2.7-2.7c-13.9-4.2-13-22.6-4.3-26.8
				c0.6-0.3,1.6-0.6,2.3-0.8c3.1-0.7,6.1-1.3,9.1-1.9C833.9,198.6,835.7,213.2,835.7,213.4"/>
			<path class="st4" d="M805.6,135.8c1.8,3.5,2.8,9.9-4.3,11.9c-2.7,0.6-5.5,1.2-8.5,1.8c-11.7,1.8-21.3-11.4-16.2-18.5
				c1.5-2.1,3.4-2.6,4.7-3c2.7-0.6,5.3-1.1,7.9-1.7C796.7,125.2,803.3,131.2,805.6,135.8"/>
			<path class="st4" d="M744.6,262.3c-0.8-6-6.4-13.6-16.5-11.6c-3.5,0.9-6.9,1.7-10.3,2.6c-1.6,0.5-4.9,1.5-7.4,5.1
				c-6.4,9.4,1.2,24,14.3,21.4c3.3-0.8,6.7-1.7,10-2.5C743.7,274.5,745.2,266.6,744.6,262.3"/>
		</g>
	</g>
</g>
</svg>
