<svg xmlns="http://www.w3.org/2000/svg" viewBox="0 0 174.36 28.1"><defs><style>.cls-1{isolation:isolate;}.cls-2{fill:#fff;}.cls-3{mix-blend-mode:screen;}</style></defs><title>Asset 1img</title><g class="cls-1"><g id="Layer_2" data-name="Layer 2"><g id="Layer_1-2" data-name="Layer 1"><path class="cls-2" d="M14.07,0a14.05,14.05,0,1,0,14,14.06A14.07,14.07,0,0,0,14.07,0Zm8.86,22.94a12.57,12.57,0,1,1,3.68-8.88A12.5,12.5,0,0,1,22.93,22.94Z"/><g class="cls-3"><path class="cls-2" d="M17.9,5.05c.12.27.14.63-.43.82l-.83.18-3.2.75c-1.07.15-1.36-.77-1-1.27a.92.92,0,0,1,.53-.38l1.5-.35c-1,.13-1.3-.7-1-1.08a.68.68,0,0,1,.33-.18l.53-.13c.88-.12,1.42.64,1.1,1a.74.74,0,0,1-.36.22l.73-.17.73-.16a1.39,1.39,0,0,1,1.39.72"/><path class="cls-2" d="M21.67,17A1.2,1.2,0,0,1,20.81,18l-.88.2-.88.2c1.08-.13,1.18.92.77,1.47a1,1,0,0,1-.6.41l-.68.16A.9.9,0,0,1,17.69,19a1.06,1.06,0,0,1,.62-.43l-1.8.43a1.08,1.08,0,0,1-1-1.78,1.16,1.16,0,0,1,.55-.33c1.21-.3,2.43-.58,3.62-.85l.94-.21c1.16-.12,1.06,1.11,1.06,1.12"/><path class="cls-2" d="M20.5,10.5a1,1,0,0,1-.72,1.1l-1,.22c-1.22.27-2.46.56-3.7.86A1.14,1.14,0,0,1,14,10.81a1.24,1.24,0,0,1,.54-.32c1.21-.29,2.42-.58,3.61-.85l1-.21a1.28,1.28,0,0,1,1.4,1.07"/><path class="cls-2" d="M13.58,8a.92.92,0,0,1-.4.84,1,1,0,0,1,.47,1.75,1.22,1.22,0,0,1-.36.18L12.5,11a1,1,0,0,1-.95-1.57,1.34,1.34,0,0,1,.21-.2.9.9,0,0,1-.35-1.65,2,2,0,0,1,.33-.15l.7-.17A.93.93,0,0,1,13.58,8"/><path class="cls-2" d="M22.73,12.44a1.05,1.05,0,0,1-.35.93,1.16,1.16,0,0,1,.15,2l-.16.06-.68.14c-1,.09-1.31-1.13-.84-1.76a1.39,1.39,0,0,1,.21-.21,1.16,1.16,0,0,1-.33-2.06l.17-.07.71-.14c1-.08,1.12,1.05,1.12,1.07"/><path class="cls-2" d="M20.41,6.43c.13.27.22.77-.34.92l-.65.14c-.91.14-1.65-.88-1.26-1.43a.64.64,0,0,1,.37-.23l.6-.13a1.36,1.36,0,0,1,1.28.73"/><path class="cls-2" d="M15.68,16.21a1,1,0,0,1-.77,1.16l-.78.19A1.07,1.07,0,0,1,13,15.91a1,1,0,0,1,.57-.4l.8-.2a1.06,1.06,0,0,1,1.28.9"/></g><path class="cls-2" d="M17.9,5.06c.11.27.14.64-.43.83l-.83.18c-1.06.24-2.14.49-3.2.75s-1.36-.77-1-1.28a.88.88,0,0,1,.53-.37l1.49-.36c-1,.14-1.29-.69-1-1.07a.75.75,0,0,1,.33-.19l.53-.12c.88-.12,1.41.64,1.1,1a.77.77,0,0,1-.37.21l.73-.16.74-.17a1.42,1.42,0,0,1,1.39.72"/><path class="cls-2" d="M21.67,17A1.24,1.24,0,0,1,20.81,18l-.88.2-.88.19c1.07-.13,1.17.93.76,1.48a1.1,1.1,0,0,1-.59.41l-.69.15A.89.89,0,0,1,17.69,19a1,1,0,0,1,.62-.43L16.5,19a1.08,1.08,0,0,1-1-1.79,1.18,1.18,0,0,1,.54-.33l3.63-.84.94-.21c1.16-.12,1.06,1.1,1.06,1.12"/><path class="cls-2" d="M20.49,10.52a1,1,0,0,1-.71,1.09l-1,.22c-1.22.28-2.47.57-3.7.87A1.15,1.15,0,0,1,14,10.83a1.3,1.3,0,0,1,.55-.33l3.61-.84,1-.21a1.25,1.25,0,0,1,1.39,1.07"/><path class="cls-2" d="M13.58,8a.92.92,0,0,1-.4.83,1,1,0,0,1,.47,1.76,1.24,1.24,0,0,1-.37.17l-.78.2a1,1,0,0,1-1-1.58l.21-.19a.9.9,0,0,1-.34-1.65,1.66,1.66,0,0,1,.33-.15l.69-.17A.94.94,0,0,1,13.58,8"/><path class="cls-2" d="M22.73,12.45a1.05,1.05,0,0,1-.35.93,1.17,1.17,0,0,1,.15,2l-.17.05-.67.15c-1,.09-1.32-1.13-.84-1.76a1.39,1.39,0,0,1,.21-.21,1.17,1.17,0,0,1-.34-2.07l.18-.06.7-.15c1-.07,1.13,1.06,1.13,1.07"/><path class="cls-2" d="M20.4,6.45a.59.59,0,0,1-.33.92l-.66.14c-.9.14-1.64-.89-1.25-1.43a.55.55,0,0,1,.36-.23l.61-.13a1.33,1.33,0,0,1,1.27.73"/><path class="cls-2" d="M15.67,16.23a1.06,1.06,0,0,0-1.28-.9l-.8.2a1,1,0,0,0-.57.4,1.08,1.08,0,0,0,1.11,1.65l.77-.19a1.06,1.06,0,0,0,.77-1.16"/><path class="cls-2" d="M32.75,19.1a.29.29,0,0,1-.29-.3V7a.29.29,0,0,1,.29-.29h5.63a.3.3,0,0,1,.3.3V8.3a.3.3,0,0,1-.3.3H34.57V12h3.63a.3.3,0,0,1,.29.3v1.35a.29.29,0,0,1-.3.29H34.56v4.9a.3.3,0,0,1-.3.29Z"/><rect class="cls-2" x="40.14" y="6.67" width="2.03" height="1.84" rx="0.29" ry="0.29"/><rect class="cls-2" x="40.13" y="9.84" width="2.03" height="9.26" rx="0.29" ry="0.29"/><path class="cls-2" d="M44.08,19.11a.29.29,0,0,1-.3-.3V10.14a.29.29,0,0,1,.29-.29h1.36a.23.23,0,0,1,.23.23v.76s.91-1.28,1.9-1.28c.22,0,.33.1.33.32v1.33a.31.31,0,0,1-.26.29,2.2,2.2,0,0,0-1.17.49,2.12,2.12,0,0,0-.64,1.73v5.1a.29.29,0,0,1-.3.29Z"/><path class="cls-2" d="M51.5,19.12a3.37,3.37,0,0,1-2.38-.89,3.1,3.1,0,0,1-1-1.87.28.28,0,0,1,.07-.21.29.29,0,0,1,.23-.1H50a.3.3,0,0,1,.29.19,1.54,1.54,0,0,0,.37.68,1.19,1.19,0,0,0,.9.36A1.29,1.29,0,0,0,52.4,17a1,1,0,0,0,.35-.77,1,1,0,0,0-.31-.78,3.38,3.38,0,0,0-1.12-.51,5.48,5.48,0,0,1-2.22-1.14,2.35,2.35,0,0,1-.64-1.71A2.67,2.67,0,0,1,49.33,10a3.15,3.15,0,0,1,2.23-.81,2.92,2.92,0,0,1,2,.8,2.85,2.85,0,0,1,.85,1.48.28.28,0,0,1-.06.25.3.3,0,0,1-.23.11H52.74a.26.26,0,0,1-.28-.16l-.07-.12a1,1,0,0,0-.21-.29,1,1,0,0,0-.68-.23,1,1,0,0,0-.73.25.91.91,0,0,0-.29.68.76.76,0,0,0,.36.66,5.27,5.27,0,0,0,1.23.5,4.83,4.83,0,0,1,2.09,1.11,2.45,2.45,0,0,1,.6,1.74,3,3,0,0,1-.91,2.25A3.25,3.25,0,0,1,51.5,19.12Z"/><rect class="cls-2" x="75.74" y="6.7" width="2.04" height="12.44" rx="0.29" ry="0.29"/><path class="cls-2" d="M83.93,19.14A4.92,4.92,0,0,1,79,14.2a4.94,4.94,0,1,1,8.43,3.51A4.8,4.8,0,0,1,83.93,19.14Zm0-8.06a2.7,2.7,0,0,0-2.07.9A3.17,3.17,0,0,0,81,14.2a3.13,3.13,0,0,0,.83,2.21,2.7,2.7,0,0,0,2.06.9A2.73,2.73,0,0,0,86,16.42a3.16,3.16,0,0,0,.83-2.21A3.23,3.23,0,0,0,86,12,2.72,2.72,0,0,0,83.94,11.08Z"/><rect class="cls-2" x="112.8" y="6.73" width="2.04" height="12.44" rx="0.29" ry="0.29"/><path class="cls-2" d="M56.85,19.12a.29.29,0,0,1-.3-.29V11.61H55.49a.31.31,0,0,1-.31-.31V10.17a.31.31,0,0,1,.31-.31h1.07V7a.31.31,0,0,1,.32-.31h1.4A.31.31,0,0,1,58.6,7V9.86h1.06a.32.32,0,0,1,.32.32V11.3a.32.32,0,0,1-.32.32H58.6v7.21a.29.29,0,0,1-.3.29Z"/><path class="cls-2" d="M67.89,19.13a6.6,6.6,0,0,1-4.74-1.9,6.13,6.13,0,0,1-1.95-4.75,6.53,6.53,0,0,1,6.61-6.29,6.76,6.76,0,0,1,3.7,1.06A6.08,6.08,0,0,1,73.6,9.47a.34.34,0,0,1,0,.31.3.3,0,0,1-.25.14H71.4a.31.31,0,0,1-.24-.13,3.85,3.85,0,0,0-1.35-1.17,4.2,4.2,0,0,0-2-.5,4.51,4.51,0,0,0-4.52,4.54,4.51,4.51,0,0,0,4.54,4.53A4.15,4.15,0,0,0,71,15.89a5.1,5.1,0,0,0,.8-1.12l.1-.18H66.78a.3.3,0,0,1-.29-.3V12.94a.29.29,0,0,1,.3-.29l7.37,0a.33.33,0,0,1,.21.09.35.35,0,0,1,.08.22,6.65,6.65,0,0,1-1.73,4.11,6.37,6.37,0,0,1-4.82,2Z"/><path class="cls-2" d="M125.69,16l-3.57-9.15a.38.38,0,0,0-.35-.24h-2.36A.37.37,0,0,0,119,7V18.81a.38.38,0,0,0,.37.38h1.23a.38.38,0,0,0,.38-.38V8.94l4,10a.34.34,0,0,0,.31.21h.73a.36.36,0,0,0,.34-.23l4-10v9.91a.38.38,0,0,0,.37.38H132a.38.38,0,0,0,.38-.38V7A.37.37,0,0,0,132,6.6h-2.36a.38.38,0,0,0-.35.24Z"/><path class="cls-2" d="M138.78,9.24a5,5,0,0,0-5.11,4.92,5.11,5.11,0,0,0,10.22,0A5,5,0,0,0,138.78,9.24Zm0,8.2a3.22,3.22,0,0,1,0-6.44,3.22,3.22,0,0,1,0,6.44Z"/><path class="cls-2" d="M149.65,9.49A3.35,3.35,0,0,0,147,10.62v-.51a.36.36,0,0,0-.37-.37h-1a.38.38,0,0,0-.37.38v8.72a.38.38,0,0,0,.38.38h1.16a.38.38,0,0,0,.37-.37V14.05c0-1.76.89-2.8,2.37-2.8,2.24,0,2.24,2.13,2.24,2.82v4.77a.38.38,0,0,0,.38.38h1.16a.37.37,0,0,0,.37-.38V13.62a4.74,4.74,0,0,0-.6-2.43A3.88,3.88,0,0,0,149.65,9.49Z"/><path class="cls-2" d="M159.76,9.26a4.86,4.86,0,0,0-4.86,5,4.82,4.82,0,0,0,9.27,2,.24.24,0,0,0-.22-.34h-1.41a.24.24,0,0,0-.21.12,2.87,2.87,0,0,1-2.55,1.44,3.08,3.08,0,0,1-2.95-2.38h7.4a.31.31,0,0,0,.31-.28c0-.22,0-.51,0-.69A4.85,4.85,0,0,0,159.76,9.26Zm0,1.76a3,3,0,0,1,2.92,2.56h-5.84A3,3,0,0,1,159.74,11Z"/><path class="cls-2" d="M172.39,9.75l-2.66,6.84-2.59-6.84a.36.36,0,0,0-.35-.24h-1.24a.37.37,0,0,0-.35.51l3.53,8.7-1.19,2.86a.37.37,0,0,0,.35.51h1.18a.38.38,0,0,0,.35-.23L174.33,10a.38.38,0,0,0-.35-.52h-1.24A.39.39,0,0,0,172.39,9.75Z"/><path class="cls-2" d="M98.58,11a4.78,4.78,0,0,0-3.5-1.45,4.65,4.65,0,0,0-2.85.9l0,0V7a.29.29,0,0,0-.3-.3H90.45a.29.29,0,0,0-.3.3V18.87a.29.29,0,0,0,.3.29H91.7c.12,0,.29-.05.29-.2v-.55a4.94,4.94,0,0,0,8-3.86A4.79,4.79,0,0,0,98.58,11ZM93,12.32a2.82,2.82,0,0,1,4.13,0,3.37,3.37,0,0,1,0,4.44,2.83,2.83,0,0,1-4.13,0,3.13,3.13,0,0,1-.82-2.21A3.17,3.17,0,0,1,93,12.32Z"/><path class="cls-2" d="M110.89,9.92h-1.27a.3.3,0,0,0-.28.29v.49h0a5,5,0,0,0-6.57.37,4.83,4.83,0,0,0-1.44,3.51,4.95,4.95,0,0,0,8,3.89h0v.45a.29.29,0,0,0,.29.29h1.27a.29.29,0,0,0,.29-.29V10.21A.29.29,0,0,0,110.89,9.92Zm-1.75,4.65a3.14,3.14,0,0,1-.83,2.21,2.84,2.84,0,0,1-4.13,0,3.17,3.17,0,0,1-.83-2.22,3.18,3.18,0,0,1,.83-2.22,2.81,2.81,0,0,1,4.13,0A3.15,3.15,0,0,1,109.14,14.57Z"/></g></g></g></svg>