<svg xmlns="http://www.w3.org/2000/svg" viewBox="0 0 106.19 30.55"><defs><style>.cls-1{fill:#29333f;}.cls-2{fill:#0065f9;}</style></defs><title>Asset 7img</title><g id="Layer_2" data-name="Layer 2"><g id="Layer_1-2" data-name="Layer 1"><path class="cls-1" d="M36.59,25.48s.08,2.86-3.46,2.86S30,26,30,25V15.3h3.78V11.59H30V2.46h2.38V0H1.33V2.46H4.56l-.28,9.13H0V15.3H4.17L3.7,30.43H9.58l0-15.13H24.56V25.68s-.25,4.79,4,4.79h4.26c4.94,0,8.3-3.54,8.38-8.9l.93-18-5.56.08Zm-12-13.89H9.63l0-9.13h14.9Z"/><path class="cls-1" d="M91.34,2.46c2.25,0,14.85-.21,14.85,0V0H87s-3.38.28-3.38,3.58V27c0,3.3,3.38,3.58,3.38,3.58h19.2V28.14c0,.16-12.6,0-14.85,0A2.05,2.05,0,0,1,89.13,26V4.55A2.05,2.05,0,0,1,91.34,2.46Z"/><polygon class="cls-1" points="60.8 20.63 59.49 0.81 54.19 0.82 55.34 20.65 60.8 20.63"/><polygon class="cls-1" points="71.94 24.52 69.6 2.33 64.3 2.35 66.48 24.53 71.94 24.52"/><path class="cls-2" d="M76.08,18c-2.41,11-2.9,10.23-13,10.23H54.71c-3.63,0-4.35-4.55-4.35-4.55V6.24H45.09c-.14-.14.12,10.43.12,17s6.6,7.24,6.6,7.24H70.45c7,0,9.86-4.87,10.62-12.52C81.08,17.91,76.09,17.91,76.08,18Z"/><path class="cls-1" d="M77.73.16l-.64,5h4.64L82.24.2S77.73.28,77.73.16Z"/><polygon class="cls-1" points="75.76 15.34 80.67 15.34 81.48 7.56 76.77 7.56 75.76 15.34"/></g></g></svg>