<svg xmlns="http://www.w3.org/2000/svg" viewBox="0 0 217.38 27.84"><defs><style>.cls-1{fill:#b2b2b2;}</style></defs><title>Asset 2img</title><g id="Layer_2" data-name="Layer 2"><g id="Layer_1-2" data-name="Layer 1"><polygon class="cls-1" points="24.79 0 0.74 0 0 3.87 9.16 3.87 3.43 26.71 9.3 26.71 15.02 3.87 24.05 3.87 24.79 0"/><polygon class="cls-1" points="141.21 26.71 147.07 26.71 150.88 11.54 145.01 11.54 141.21 26.71"/><path class="cls-1" d="M103.35,6.24A12.9,12.9,0,0,0,90.52,16.41C88,28.27,107.08,29,111.48,22.68h0a8.44,8.44,0,0,0-2.61-.21c-3.11.83-12.47,2.21-12.44-4.91h17.65S117.55,6.24,103.35,6.24Zm-6.56,7.87c.89-2.52,4.13-4.33,7.07-4.33s5.65,1.75,5.65,4.33Z"/><path class="cls-1" d="M30.49,6.24A12.91,12.91,0,0,0,17.66,16.41c-2.52,11.86,16.56,12.61,21,6.27h0a8.4,8.4,0,0,0-2.6-.21c-3.11.83-12.47,2.21-12.44-4.91H41.23S44.69,6.24,30.49,6.24Zm-6.55,7.87c.89-2.52,4.13-4.33,7.07-4.33s5.65,1.75,5.65,4.33Z"/><path class="cls-1" d="M90.09,7.35a10.34,10.34,0,0,0-2-.52c-12.44-2-18.56,3.9-20.15,9.58S69.25,26.7,77,26.7a21.83,21.83,0,0,0,8.88-1.9.2.2,0,0,0,.1-.12l1.15-4.63a.17.17,0,0,0-.29-.15C85,22,81,22.7,78.36,22.71c-3.57,0-5.63-2.81-4.6-6.32A9.33,9.33,0,0,1,82.09,10a8.25,8.25,0,0,1,6.41,3.23.17.17,0,0,0,.3-.05l1.4-5.64A.17.17,0,0,0,90.09,7.35Z"/><polygon class="cls-1" points="146.25 5.83 141.41 5.83 140.29 9.86 157.45 9.86 147.47 1.36 146.25 5.83"/><path class="cls-1" d="M131.32,6.83a12.25,12.25,0,0,0-6.91,2.29l-5-1.65-4.82,19.24h5.75l2.25-8.51.33-1.31c.14-.54.28-1.07.44-1.59l0-.14a6.8,6.8,0,0,1,1-2.21,5.37,5.37,0,0,1,1.53-1.61,5.81,5.81,0,0,1,3.73-1.28h0c2.72.13,4.29,2.63,3.52,5.58l-2.94,11.07h5.36s1.53-6.35,2.58-11C138.53,14.16,140.81,6.83,131.32,6.83Z"/><path class="cls-1" d="M58.39,6.83a12.3,12.3,0,0,0-6.92,2.29l-5-1.65L41.6,26.71h5.75L49.6,18.2c.11-.44.22-.87.34-1.31s.27-1.07.43-1.59l0-.14a6.8,6.8,0,0,1,1-2.21A5.37,5.37,0,0,1,53,11.34a5.82,5.82,0,0,1,3.74-1.28h0c2.71.13,4.28,2.63,3.51,5.58L57.3,26.71h5.35s1.54-6.35,2.58-11C65.59,14.16,67.87,6.83,58.39,6.83Z"/><path class="cls-1" d="M173.24,4.21a1.21,1.21,0,0,0-1-.46h-5.94a1.2,1.2,0,0,0-1.19,1,211.84,211.84,0,0,1-5.31,21.09L159.49,27l2.32.72.36-1.16c0-.06,1.1-3.54,2.35-8.25h3.3l-2,8.52,2.36.57,5.34-22.15A1.22,1.22,0,0,0,173.24,4.21Zm-2.49,2-1,4.17h-3.25c.31-1.4.61-2.8.87-4.17ZM165.12,16c.28-1.09.56-2.22.84-3.38h3.22L168.37,16Z"/><path class="cls-1" d="M214.14,25c-.13-2.36-.34-7.92.41-10.82a79.76,79.76,0,0,1,2.74-8.46,1.23,1.23,0,0,0-.13-1.13,1.21,1.21,0,0,0-1-.53H203.94V6.46h10.47c-.54,1.49-1.33,3.81-2,6.32h-4.2l1.14-5.08L207,7.17l-1.26,5.61h-3.63V15.2h3.09l-2.66,11.92,2.37.53,2.78-12.45h4.22a64.6,64.6,0,0,0-.09,11.08A1.22,1.22,0,0,0,213,27.4l4.37,0,0-2.42Z"/><path class="cls-1" d="M201.14,16.64l-3.58,4.65,1.9-9.26a1.21,1.21,0,0,0-1.19-1.45h-5.12V13h3.63l-2.65,13a1.2,1.2,0,0,0,.68,1.34,1.1,1.1,0,0,0,.5.11,1.25,1.25,0,0,0,1-.47l6.78-8.82Z"/><rect class="cls-1" x="195.56" y="2.98" width="2.43" height="6.69" transform="translate(11.07 71.69) rotate(-21.23)"/><path class="cls-1" d="M185.69,12.89h5.21V10.47h-7.31l0-.06-.09.06h-1.33c.21-.34.41-.68.58-1h8.18V7h-2.12l1.31-3.47-2.27-.85L186.19,7H183.7a13,13,0,0,0,.61-4.3l-.09-1.21-2.42.18.09,1.21A10.58,10.58,0,0,1,181.16,7H179l-1.47-4.3-2.29.78L176.45,7h-3.06V9.46h6.52c-.23.33-.49.67-.78,1h-5.74v2.42h2.86a15.65,15.65,0,0,1-3.36,1.54l-1.15.38.76,2.3,1.15-.38c.32-.1.63-.21.92-.33L173.45,20a1.22,1.22,0,0,0,1.16,1.58h8.64l-1.06,3.81h-7.76v2.43h8.68a1.21,1.21,0,0,0,1.17-.89L186,20.71a1.21,1.21,0,0,0-.2-1.06,1.23,1.23,0,0,0-1-.48h-2.29l.75-2.8h3.35c.73.41,1.57.83,2.55,1.26l1.11.49,1-2.22-1.11-.49A22.63,22.63,0,0,1,185.69,12.89ZM180,19.17h-3.79l.87-2.8h3.67Zm-1.27-5.06a13.16,13.16,0,0,0,1.41-1.22h2a7.56,7.56,0,0,0,1.14,1.22Z"/><rect class="cls-1" x="171.33" y="22.18" width="9.61" height="2.43"/></g></g></svg>