<svg xmlns="http://www.w3.org/2000/svg" viewBox="0 0 220.78 35.65"><defs><style>.cls-1{isolation:isolate;}.cls-2{fill:#4dcd86;}.cls-3{mix-blend-mode:screen;}</style></defs><title>Asset 5img</title><g class="cls-1"><g id="Layer_2" data-name="Layer 2"><g id="Layer_1-2" data-name="Layer 1"><path class="cls-2" d="M17.8,0A17.83,17.83,0,1,0,35.59,17.83,17.83,17.83,0,0,0,17.8,0ZM29,29.09A15.77,15.77,0,0,1,17.8,33.75,15.91,15.91,0,1,1,29,29.09Z"/><g class="cls-3"><path class="cls-2" d="M22.66,6.4c.15.34.17.8-.55,1l-1.05.23-4,1c-1.36.19-1.72-1-1.31-1.62a1.07,1.07,0,0,1,.66-.47c.63-.16,1.27-.31,1.9-.45C17,6.26,16.61,5.2,17,4.72a.88.88,0,0,1,.42-.23l.67-.16c1.11-.15,1.79.8,1.39,1.3a.9.9,0,0,1-.46.28L20,5.69l.93-.21a1.78,1.78,0,0,1,1.76.92"/><path class="cls-2" d="M27.45,21.5a1.55,1.55,0,0,1-1.09,1.34l-1.12.25-1.11.25c1.36-.16,1.49,1.18,1,1.88a1.33,1.33,0,0,1-.75.51l-.87.2a1.14,1.14,0,0,1-1.07-1.82,1.31,1.31,0,0,1,.78-.55l-2.28.55a1.37,1.37,0,0,1-1.28-2.26,1.57,1.57,0,0,1,.69-.42l4.59-1.08,1.19-.26c1.47-.16,1.35,1.4,1.35,1.41"/><path class="cls-2" d="M26,13.31a1.22,1.22,0,0,1-.9,1.39L23.78,15c-1.54.36-3.12.72-4.68,1.11a1.46,1.46,0,0,1-1.42-2.38,1.63,1.63,0,0,1,.69-.41c1.53-.37,3.07-.73,4.58-1.07L24.18,12A1.6,1.6,0,0,1,26,13.31"/><path class="cls-2" d="M17.2,10.17a1.22,1.22,0,0,1-.51,1.07,1.24,1.24,0,0,1,.6,2.22,1.68,1.68,0,0,1-.47.22l-1,.25a1.22,1.22,0,0,1-1.21-2,1.54,1.54,0,0,1,.26-.25,1.14,1.14,0,0,1-.43-2.09,2,2,0,0,1,.41-.2l.88-.22a1.21,1.21,0,0,1,1.46,1"/><path class="cls-2" d="M28.78,15.76A1.34,1.34,0,0,1,28.34,17a1.47,1.47,0,0,1,.19,2.59l-.2.07-.86.18c-1.29.12-1.67-1.42-1.07-2.23a3.38,3.38,0,0,1,.27-.26,1.48,1.48,0,0,1-.43-2.62,1,1,0,0,1,.23-.08l.89-.19c1.25-.1,1.42,1.34,1.42,1.35"/><path class="cls-2" d="M25.83,8.15c.18.35.28,1-.42,1.17l-.83.18c-1.15.18-2.09-1.12-1.59-1.82a.73.73,0,0,1,.46-.29l.77-.16a1.67,1.67,0,0,1,1.61.92"/><path class="cls-2" d="M19.85,20.56a1.31,1.31,0,0,1-1,1.47l-1,.25a1.37,1.37,0,0,1-1.4-2.1,1.17,1.17,0,0,1,.72-.5l1-.26a1.34,1.34,0,0,1,1.62,1.14"/></g><path class="cls-2" d="M22.65,6.42c.15.34.18.8-.54,1l-1.05.24c-1.34.3-2.7.62-4.06,1s-1.71-1-1.31-1.62a1.12,1.12,0,0,1,.67-.47l1.9-.45C17,6.28,16.61,5.22,17,4.75a.77.77,0,0,1,.41-.24l.68-.16c1.11-.15,1.79.81,1.39,1.31a1,1,0,0,1-.46.27L20,5.71l.93-.2a1.76,1.76,0,0,1,1.76.91"/><path class="cls-2" d="M27.44,21.52a1.54,1.54,0,0,1-1.09,1.34l-1.11.25-1.11.25c1.36-.16,1.48,1.18,1,1.88a1.35,1.35,0,0,1-.76.51l-.86.2a1.13,1.13,0,0,1-1.07-1.81,1.34,1.34,0,0,1,.77-.56l-2.28.55a1.37,1.37,0,0,1-1.27-2.26,1.57,1.57,0,0,1,.69-.42c1.53-.37,3.08-.73,4.59-1.08l1.19-.26c1.47-.16,1.34,1.4,1.34,1.41"/><path class="cls-2" d="M26,13.33a1.23,1.23,0,0,1-.9,1.39L23.78,15c-1.55.35-3.12.72-4.69,1.1a1.45,1.45,0,0,1-1.41-2.37,1.57,1.57,0,0,1,.69-.42c1.53-.37,3.06-.73,4.57-1.07L24.18,12A1.62,1.62,0,0,1,26,13.33"/><path class="cls-2" d="M17.19,10.2a1.19,1.19,0,0,1-.51,1.06,1.24,1.24,0,0,1,.6,2.22,2,2,0,0,1-.46.23l-1,.24a1.22,1.22,0,0,1-1.21-2,1.6,1.6,0,0,1,.27-.25,1.14,1.14,0,0,1-.44-2.09,1.69,1.69,0,0,1,.41-.19l.89-.22a1.18,1.18,0,0,1,1.45,1"/><path class="cls-2" d="M28.78,15.79A1.33,1.33,0,0,1,28.34,17a1.48,1.48,0,0,1,.19,2.59,1.72,1.72,0,0,1-.21.07l-.86.18c-1.28.12-1.66-1.42-1.06-2.22a2.2,2.2,0,0,1,.26-.27,1.47,1.47,0,0,1-.42-2.62,1,1,0,0,1,.22-.08l.89-.19c1.25-.1,1.43,1.34,1.43,1.36"/><path class="cls-2" d="M25.83,8.18c.17.34.28,1-.43,1.16l-.82.18C23.43,9.7,22.49,8.4,23,7.7a.82.82,0,0,1,.47-.29l.77-.16a1.67,1.67,0,0,1,1.61.93"/><path class="cls-2" d="M19.85,20.59a1.35,1.35,0,0,0-1.62-1.15l-1,.26a1.33,1.33,0,0,0-.72.5,1.37,1.37,0,0,0,1.41,2.1l1-.25a1.33,1.33,0,0,0,1-1.46"/><path class="cls-2" d="M41.48,24.21a.38.38,0,0,1-.37-.38V8.8a.37.37,0,0,1,.37-.37h7.13A.37.37,0,0,1,49,8.8v1.71a.38.38,0,0,1-.37.37H43.76v4.28h4.59a.37.37,0,0,1,.37.37v1.72a.37.37,0,0,1-.37.37H43.76v6.21a.37.37,0,0,1-.37.38Z"/><rect class="cls-2" x="50.82" y="8.43" width="2.58" height="2.34" rx="0.37" ry="0.37"/><rect class="cls-2" x="50.82" y="12.46" width="2.58" height="11.75" rx="0.37" ry="0.37"/><path class="cls-2" d="M55.82,24.21a.37.37,0,0,1-.37-.38v-11a.36.36,0,0,1,.37-.37h1.71a.29.29,0,0,1,.29.29v1s1.15-1.62,2.39-1.62c.29,0,.43.13.43.4v1.69a.38.38,0,0,1-.33.37,2.86,2.86,0,0,0-1.48.62,2.74,2.74,0,0,0-.8,2.2v6.46a.38.38,0,0,1-.38.38Z"/><path class="cls-2" d="M65.22,24.21a4.24,4.24,0,0,1-3-1.13A3.92,3.92,0,0,1,61,20.72a.36.36,0,0,1,.08-.27.37.37,0,0,1,.29-.13h2a.37.37,0,0,1,.36.24,2,2,0,0,0,.47.86,1.52,1.52,0,0,0,1.14.46,1.64,1.64,0,0,0,1.08-.37,1.26,1.26,0,0,0,.44-1,1.28,1.28,0,0,0-.4-1A4,4,0,0,0,65,18.9a6.87,6.87,0,0,1-2.81-1.45,2.94,2.94,0,0,1-.82-2.16,3.4,3.4,0,0,1,1.1-2.62,4,4,0,0,1,2.83-1,3.68,3.68,0,0,1,2.59,1A3.71,3.71,0,0,1,69,14.52a.42.42,0,0,1-.07.33.39.39,0,0,1-.3.14H66.78a.32.32,0,0,1-.35-.2l-.09-.15a1.11,1.11,0,0,0-.27-.37,1.22,1.22,0,0,0-.86-.3,1.36,1.36,0,0,0-.93.32,1.18,1.18,0,0,0-.35.87.94.94,0,0,0,.45.83,6.3,6.3,0,0,0,1.55.64A5.94,5.94,0,0,1,68.58,18a3.11,3.11,0,0,1,.76,2.2,3.74,3.74,0,0,1-1.15,2.85A4.08,4.08,0,0,1,65.22,24.21Z"/><rect class="cls-2" x="95.9" y="8.43" width="2.58" height="15.78" rx="0.37" ry="0.37"/><path class="cls-2" d="M106.28,24.21A6.23,6.23,0,0,1,100,17.94a6.1,6.1,0,0,1,1.82-4.45,6.26,6.26,0,0,1,10.68,4.45,6.25,6.25,0,0,1-6.26,6.27Zm0-10.24a3.43,3.43,0,0,0-2.61,1.15,4.05,4.05,0,0,0-1,2.82,4,4,0,0,0,1,2.8,3.43,3.43,0,0,0,2.61,1.14,3.49,3.49,0,0,0,2.63-1.13,4,4,0,0,0,1-2.81,4,4,0,0,0-1-2.82A3.44,3.44,0,0,0,106.28,14Z"/><rect class="cls-2" x="142.84" y="8.43" width="2.58" height="15.78" rx="0.37" ry="0.37"/><path class="cls-2" d="M72,24.21a.37.37,0,0,1-.37-.38V14.69H70.27a.4.4,0,0,1-.4-.4V12.86a.4.4,0,0,1,.4-.4h1.35V8.81a.4.4,0,0,1,.4-.4H73.8a.4.4,0,0,1,.4.4v3.65h1.34a.39.39,0,0,1,.4.4v1.43a.39.39,0,0,1-.4.4H74.2v9.14a.38.38,0,0,1-.38.38Z"/><path class="cls-2" d="M86,24.21a8.35,8.35,0,0,1-6-2.41,7.81,7.81,0,0,1-2.48-6,8.29,8.29,0,0,1,8.36-8,8.63,8.63,0,0,1,4.69,1.34A7.8,7.8,0,0,1,93.2,12a.39.39,0,0,1,0,.38.36.36,0,0,1-.32.19H90.41a.35.35,0,0,1-.3-.17,4.9,4.9,0,0,0-1.71-1.47,5.34,5.34,0,0,0-2.53-.64,5.52,5.52,0,0,0-4.05,1.67A5.6,5.6,0,0,0,80.16,16a5.7,5.7,0,0,0,5.75,5.75,5.27,5.27,0,0,0,4-1.66,6.56,6.56,0,0,0,1-1.41l.12-.24H84.57a.36.36,0,0,1-.37-.37V16.36a.37.37,0,0,1,.37-.37c.07,0,7.31,0,9.33,0a.36.36,0,0,1,.27.12.38.38,0,0,1,.1.27,8.42,8.42,0,0,1-2.18,5.21A8,8,0,0,1,86,24.21Z"/><path class="cls-2" d="M159.17,20.15,154.63,8.54a.48.48,0,0,0-.44-.3h-3a.47.47,0,0,0-.47.47v15a.47.47,0,0,0,.47.47h1.56a.47.47,0,0,0,.47-.47V11.22L158.31,24a.41.41,0,0,0,.39.26h.92a.48.48,0,0,0,.44-.3l5.07-12.75V23.75a.47.47,0,0,0,.47.47h1.56a.47.47,0,0,0,.47-.47v-15a.47.47,0,0,0-.47-.47h-3a.48.48,0,0,0-.44.3Z"/><path class="cls-2" d="M175.73,11.58a6.36,6.36,0,0,0-6.46,6.25,6.47,6.47,0,0,0,12.93,0A6.39,6.39,0,0,0,175.73,11.58Zm0,10.41a4.09,4.09,0,1,1,4.05-4.12A4.08,4.08,0,0,1,175.73,22Z"/><path class="cls-2" d="M189.49,11.88a4.24,4.24,0,0,0-3.38,1.44v-.64a.49.49,0,0,0-.48-.48h-1.32a.49.49,0,0,0-.48.48V23.75a.48.48,0,0,0,.48.47h1.47a.47.47,0,0,0,.47-.47V17.68c0-2.23,1.13-3.56,3-3.56,2.83,0,2.83,2.69,2.83,3.58v6.05a.47.47,0,0,0,.48.47H194a.47.47,0,0,0,.47-.47V17.12a5.9,5.9,0,0,0-.76-3.08A4.91,4.91,0,0,0,189.49,11.88Z"/><path class="cls-2" d="M202.29,11.58a6.16,6.16,0,0,0-6.14,6.31,6.1,6.1,0,0,0,11.74,2.54.3.3,0,0,0-.28-.42h-1.79a.28.28,0,0,0-.26.15A3.65,3.65,0,0,1,202.34,22a3.89,3.89,0,0,1-3.74-3H208a.39.39,0,0,0,.39-.36c0-.28.05-.65.05-.88A6.17,6.17,0,0,0,202.29,11.58Zm0,2.24a3.75,3.75,0,0,1,3.7,3.24h-7.4A3.76,3.76,0,0,1,202.27,13.82Z"/><path class="cls-2" d="M218.29,12.19l-3.36,8.68-3.29-8.67a.46.46,0,0,0-.44-.31h-1.58a.48.48,0,0,0-.44.66l4.48,11-1.49,3.63a.47.47,0,0,0,.44.65h1.49a.47.47,0,0,0,.44-.29l6.21-15a.48.48,0,0,0-.44-.66h-1.58A.48.48,0,0,0,218.29,12.19Z"/><path class="cls-2" d="M124.83,13.91a6.28,6.28,0,0,0-8-.7l0,0V8.82a.37.37,0,0,0-.37-.38h-1.84a.37.37,0,0,0-.37.38v15a.36.36,0,0,0,.37.37h1.61c.15,0,.36-.07.36-.25v-.7a6.29,6.29,0,0,0,8.34-.47,6.11,6.11,0,0,0,1.82-4.44A6.11,6.11,0,0,0,124.83,13.91Zm-7,1.63a3.39,3.39,0,0,1,2.61-1.14A3.42,3.42,0,0,1,123,15.54a4.05,4.05,0,0,1,1,2.82,4,4,0,0,1-1,2.8,3.45,3.45,0,0,1-2.62,1.14,3.42,3.42,0,0,1-2.61-1.14,4,4,0,0,1-1.05-2.8A4,4,0,0,1,117.79,15.54Z"/><path class="cls-2" d="M140.42,12.47h-1.61a.37.37,0,0,0-.36.36v.63l0,0a6.25,6.25,0,0,0-8.32.48,6.11,6.11,0,0,0-1.82,4.45,6.23,6.23,0,0,0,6.24,6.27,6,6,0,0,0,3.9-1.35h0v.58a.37.37,0,0,0,.36.36h1.62a.36.36,0,0,0,.36-.36v-11A.36.36,0,0,0,140.42,12.47Zm-2.22,5.9a4,4,0,0,1-1,2.81,3.57,3.57,0,0,1-5.23,0,4,4,0,0,1-1-2.81,4,4,0,0,1,1-2.81,3.55,3.55,0,0,1,5.23,0A4,4,0,0,1,138.2,18.37Z"/></g></g></g></svg>