<svg xmlns="http://www.w3.org/2000/svg" viewBox="0 0 234.98 68.17"><defs><style>.cls-1,.cls-2{fill:#b2b2b2;}.cls-2{font-size:8px;font-family:NirmalaUI-Semilight, NirmalaUI Semilight;}.cls-3{letter-spacing:-0.01em;}.cls-4{letter-spacing:0em;}.cls-5{letter-spacing:0.03em;}.cls-6{letter-spacing:-0.06em;}.cls-7{letter-spacing:0.01em;}.cls-8{letter-spacing:-0.07em;}.cls-9{letter-spacing:0em;}</style></defs><title>Asset 4img</title><g id="Layer_2" data-name="Layer 2"><g id="Layer_1-2" data-name="Layer 1"><path class="cls-1" d="M30.49,22.93a1.82,1.82,0,0,0-.76-1.43l-5.86-4.24,0-.31c4.09-1.72,4.55-6.21,4.6-6.91a9.19,9.19,0,0,0,.86-4.31,8.08,8.08,0,0,0-.23-2v0h0S29,0,23,0a16.76,16.76,0,0,0-3.76.37,4.11,4.11,0,0,0-3.17,4V6.14a.91.91,0,0,0-.6.13,1,1,0,0,0-.36.8,15.3,15.3,0,0,0,.63,4.55,4.28,4.28,0,0,0,.49.81,5.38,5.38,0,0,1,.32.52s0,0,0,0l-.47,3.28L9.2,18.43a.29.29,0,0,0-.15.12L.28,30.74a1.49,1.49,0,0,0,.3,2.05l7.48,5.84a.36.36,0,0,0,.24.07l.06,0,.11.14.38,2.8c0,.33.78,9.7,1.64,16.06S10.3,68,10.3,68h5.2l-1.67-1.76.69-12.56,2.74,4.81v9.71h5L19.91,66.3,20.55,44l1.18-2.4L25,36.53l5.14-2.09a1.19,1.19,0,0,0,.71-1.13Zm-1-.88a7.33,7.33,0,0,0-1.24,2.26H25.9l.29-1.07a.31.31,0,0,0-.22-.37.3.3,0,0,0-.37.22l-.82,3.07a.31.31,0,0,0,.22.38h.07a.31.31,0,0,0,.3-.23l.38-1.45c.05,0,.08.05.13.05H28a38.18,38.18,0,0,0-1.63,6.75L21.15,41.3h-1.9a75.62,75.62,0,0,0,3-7.44A11.91,11.91,0,0,0,22.85,30l0-11.6a4.76,4.76,0,0,0,.92-.27.3.3,0,0,0,.12-.13h0l5.49,4ZM10.87,26.58a.3.3,0,0,0,.1-.21s0,0,0,0c.83-2.56.86-4.59.09-6a3.32,3.32,0,0,0-1.35-1.41l6.58-2.08h0a7.81,7.81,0,0,0,4.89,1.76,7.47,7.47,0,0,0,1-.07l0,11.49a11.18,11.18,0,0,1-.58,3.66,78.2,78.2,0,0,1-3.08,7.65l-9.15,0,0-.42,1.19-3.51h4.25a.31.31,0,0,0,0-.61H11.14l-.9-.89a.31.31,0,0,0-.07-.32L9.12,34.7l-.79-.84-.1-5Zm5.46-15.15a14.34,14.34,0,0,1-.61-4.38s0-.22.1-.28a.26.26,0,0,1,.14,0l.2,0a1.72,1.72,0,0,1,.32.23l.79.81h0c.19.23.32.41.32.41,1.11-.76.24-3.78.24-3.78s.24-2.3,1.94-1.52C24.66,5.16,27.46,4.48,28.58,4a7.82,7.82,0,0,1,.18,1.73c0,.54,0,1-.08,1.49A7.46,7.46,0,0,0,27,7.34a.3.3,0,0,0-.25.35.32.32,0,0,0,.3.26h.06a7.63,7.63,0,0,1,1.47-.13A4.84,4.84,0,0,1,28,9.74a.32.32,0,0,0-.23.13.88.88,0,0,1-1.3.17,3.92,3.92,0,0,0-.13-.64.3.3,0,1,0-.58.17,4.46,4.46,0,0,1,.13.93c0,1.09-.57,1.13-.79,1.14a.68.68,0,0,1-.63-.2,2.19,2.19,0,0,1-.18-1.56.31.31,0,1,0-.6-.13A2.73,2.73,0,0,0,24,11.84a1.25,1.25,0,0,0,1,.42h.13c.81-.05,1.27-.62,1.33-1.53a1.56,1.56,0,0,0,.6.15,1.38,1.38,0,0,0,.79-.26,7.28,7.28,0,0,1-4.25,5.81c-.16.07-.34.13-.52.19l-.25,0c-.87.11-3.77.17-5.46-3.37-.08-.18-.16-.36-.24-.56a2.84,2.84,0,0,0-.21-.37l-.17-.26A4.49,4.49,0,0,1,16.33,11.43Zm6,5.85a4.12,4.12,0,0,0,.91-.08h0l0,.18a.3.3,0,0,0,.12.26,7.15,7.15,0,0,1-6.67-1.28L17,14A5.86,5.86,0,0,0,22.32,17.28ZM.78,31.09,9.23,19.34a2.63,2.63,0,0,1,1.31,1.26c.68,1.27.63,3.19-.13,5.55v0l-5.75,5a.28.28,0,0,0-.11.23.31.31,0,0,0,.11.23l4,3.55.8.85L8.18,38,1,32.31A.89.89,0,0,1,.78,31.09Zm6.93,2.37-2.39-2.1,2.31-2Zm22.21.42L24.7,36h0l1.66-3.08.64-.46.24-2.36c1-5.2,2.18-7,2.56-7.54a1,1,0,0,1,.08.39l.38,10.39A.59.59,0,0,1,29.92,33.88Z"/><path class="cls-1" d="M20.77,9.56h.05a3.86,3.86,0,0,0,2.44-1.37.3.3,0,0,0-.07-.42.31.31,0,0,0-.43.06,3.15,3.15,0,0,1-2,1.12.31.31,0,0,0-.26.35A.3.3,0,0,0,20.77,9.56Z"/><path class="cls-1" d="M21.22,12.58a.31.31,0,0,0-.42-.09.32.32,0,0,0-.09.43,4,4,0,0,0,3.45,1.91,4.22,4.22,0,0,0,1.49-.25.29.29,0,0,0,.17-.39.29.29,0,0,0-.39-.17A3.51,3.51,0,0,1,21.22,12.58Z"/><path class="cls-1" d="M17.31,10h0a.31.31,0,0,0,.3-.29.3.3,0,0,0-.28-.32c-.27,0-.34-.63-.34-.78a.3.3,0,0,0-.3-.3h0a.31.31,0,0,0-.31.3C16.4,9.13,16.59,10,17.31,10Z"/><path class="cls-1" d="M22,6.44a2.68,2.68,0,0,1,2.22.75.28.28,0,0,0,.22.1.32.32,0,0,0,.21-.08.31.31,0,0,0,0-.43,3.31,3.31,0,0,0-2.75-1,.32.32,0,0,0-.26.35A.3.3,0,0,0,22,6.44Z"/><path class="cls-1" d="M56.72,24.35h1.53c.73,0,1.76.47,1.29,1.69l-4.73,11L50,24.35h1.73v-.72H41.49v.72h2.06l9.1,19.89,1-2.72,7.36-17.17h1.62v-.72h-6Z"/><path class="cls-1" d="M118.72,34.27l5.7-9.91h1.88v-.73h-6v.73h2c.31,0,1,.31.45,1.47l-4.5,7.8-4.9-9.28h1.69v-.72h-9.18v.72H107l6.69,10.94v6.8h-1.59v.72h9.07v-.72h-2.42Z"/><path class="cls-1" d="M233.5,42.07l-9.28-11.55,7.65-6.17h1.93v-.72h-7.55v.72h2c.77,0,2.33.29,1.42,1l-9.21,7v-8h2.21v-.72h-9.39v.72h2.56v15a2.75,2.75,0,0,1-2.74,2.75h-.18v.71H222v-.71s-1.53-.06-1.53-1.2V33.46h.06s7.59,8.61,5.9,8.61h-1.3v.71H235v-.71Z"/><path class="cls-1" d="M164.37,32.67c1.35-.22,4.2-1.07,4.2-4.3a4.4,4.4,0,0,0-2.29-3.65,9.33,9.33,0,0,0-4.91-1.15h-9.7v.67h3V42.08h-3v.67h8.94s8.62.65,8.62-4.86C169.23,34.1,165.51,32.85,164.37,32.67ZM158.64,25h1.41c1.89,0,3.55.44,3.55,3.35,0,0,0,.05,0,.08,0,2-.45,3.78-2.09,3.78h-2.88Zm1.92,16.95c-1,0-1.92-.56-1.92-1.38V33.6l1.43,0A4.11,4.11,0,0,1,164.18,37a3.31,3.31,0,0,1,0,.55C164.22,39.31,164.06,41.91,160.56,41.91Z"/><path class="cls-1" d="M134.17,23.86s-6.63,15.81-8.12,17.69a3.21,3.21,0,0,1-2,.74v.64h6.55v-.64s-4.17.33-3.2-1.94l1.5-3.25h5.74l2.19,5.19H135v.64h10.5v-.64h-2.17Zm-5,12.6,2.7-5.85,2.47,5.85Z"/><path class="cls-1" d="M180.66,23.86S174,39.67,172.53,41.55a3.17,3.17,0,0,1-2,.74v.64h6.55v-.64s-4.17.33-3.2-1.94l1.5-3.25h5.74l2.19,5.19h-1.81v.64H192v-.64h-2.18Zm-5,12.6,2.7-5.85,2.47,5.85Z"/><path class="cls-1" d="M98.47,23.86s-6.64,15.81-8.13,17.69a3.17,3.17,0,0,1-2,.74v.64h6.55v-.64s-4.18.33-3.2-1.94l1.5-3.25H99l2.19,5.19H99.32v.64h10.51v-.64h-2.18Zm-5,12.6,2.7-5.85,2.48,5.85Z"/><path class="cls-1" d="M83,23.63H78v.72h1.36c1.37,0,1.31.77,1.31,2.15,0,.68,0,1.36,0,2V40.28c0,3.28-3.27,3.24-3.45,1.62a2.29,2.29,0,0,1,.16-1.07c0-.09.43-.57.51-.68a2.66,2.66,0,0,0,.45-1.88,1.84,1.84,0,0,0-2-1.64,2.11,2.11,0,0,0-1.5.65,2.89,2.89,0,0,0-.67,2,4.25,4.25,0,0,0,.61,2.23,4,4,0,0,0,1.45,1.33,6.77,6.77,0,0,0,3.25.71c3.56,0,5.77-1.24,5.77-3.23V26.5c0-1.38,0-2.15,1.32-2.15H88v-.72H83Z"/><path class="cls-1" d="M68.57,23.63h-5v.72H65c1.37,0,1.32.77,1.32,2.15v5.35h0V40c0,1.38,0,2.15-1.32,2.15H63.6v.72h10v-.72H72.23c-1.37,0-1.32-.77-1.32-2.15V32.9h0V26.5c0-1.38,0-2.15,1.32-2.15h1.36v-.72h-5Z"/><path class="cls-1" d="M208.82,23.63h-3.24v.72h1c1.44,0,1.58.67,1.57,2.83v7.43l-9.17-11h-6.79v.72h1.24l2,2.27V40.36a1.76,1.76,0,0,1-1.65,1.85h-1.1v.72h6.55v-.72h-1.45a1.75,1.75,0,0,1-1.64-1.9h0V27.42l12,13.74,1.45,1.66,0-15.65h0c0-2.16.12-2.83,1.56-2.83h1v-.72h-3.39Z"/><text class="cls-2" transform="translate(81.01 59.98)"><tspan class="cls-3">(</tspan><tspan class="cls-4" x="2.18" y="0">A GO</tspan><tspan class="cls-5" x="19.46" y="0">V</tspan><tspan class="cls-6" x="24.18" y="0">T</tspan><tspan x="27.68" y="0">. OF INDIA UNDE</tspan><tspan class="cls-7" x="82.85" y="0">R</tspan><tspan class="cls-8" x="87.22" y="0">T</tspan><tspan class="cls-9" x="90.6" y="0">AKING)</tspan></text></g></g></svg>