<svg xmlns="http://www.w3.org/2000/svg" viewBox="0 0 10.9 13.4"><defs><style>.cls-1{fill:#30aabe;}</style></defs><title>Asset 6img</title><g id="Layer_2" data-name="Layer 2"><g id="Layer_1-2" data-name="Layer 1"><path class="cls-1" d="M7.93,0A3,3,0,0,0,5.35,3.14C7.72,3.15,8.12.46,7.93,0Z"/><path class="cls-1" d="M10.88,9.87A2.61,2.61,0,0,1,9.13,7.33a3.21,3.21,0,0,1,1.39-2.67s0-.2-.93-.88a3.42,3.42,0,0,0-3.23,0,2.91,2.91,0,0,1-2-.1C1.36,2.64,0,5.25,0,7.39s1.34,6,3.53,6c.92,0,1.1-.56,2.14-.56s1.18.52,2.31.52C9.57,13.36,11.13,9.92,10.88,9.87Z"/></g></g></svg>