<svg xmlns="http://www.w3.org/2000/svg" viewBox="0 0 10.93 13.55"><defs><style>.cls-1{fill:#30aabe;}</style></defs><title>Asset 5img</title><g id="Layer_2" data-name="Layer 2"><g id="Layer_1-2" data-name="Layer 1"><path class="cls-1" d="M.62,3.7A.61.61,0,0,0,0,4.31V8.83a.62.62,0,0,0,.62.62.62.62,0,0,0,.62-.62V4.31A.61.61,0,0,0,.62,3.7Z"/><rect class="cls-1" x="9.69" y="3.7" width="1.24" height="5.75" rx="0.62" ry="0.62"/><path class="cls-1" d="M1.87,4.12h0v6.12a.73.73,0,0,0,.72.73h.76v2a.62.62,0,1,0,1.24,0V11H6.46v2a.62.62,0,0,0,1.24,0V11h.64a.73.73,0,0,0,.73-.73V4.12H1.87Z"/><path class="cls-1" d="M7.53,1.06,8,.23A.16.16,0,0,0,8,0a.16.16,0,0,0-.21.05L7.27.9A3.54,3.54,0,0,0,5.47.41h0a3.53,3.53,0,0,0-1.82.5L3.16.07A.15.15,0,0,0,3,0,.15.15,0,0,0,2.9.23l.5.84A3.57,3.57,0,0,0,1.9,3.55H9A3.64,3.64,0,0,0,7.53,1.06ZM4,2.63A.59.59,0,0,1,3.43,2,.59.59,0,0,1,4.6,2,.59.59,0,0,1,4,2.63Zm2.9,0A.59.59,0,0,1,6.32,2,.59.59,0,0,1,7.49,2,.59.59,0,0,1,6.91,2.63Z"/></g></g></svg>