<svg xmlns="http://www.w3.org/2000/svg" viewBox="0 0 68.17 64.2"><defs><style>.cls-1{fill:#51b748;}</style></defs><title>Asset 6img</title><g id="Layer_2" data-name="Layer 2"><g id="Layer_1-2" data-name="Layer 1"><path class="cls-1" d="M64.41,16.41,24.93,40.76A2.09,2.09,0,0,1,22,39.91L15.44,24.76a1.13,1.13,0,0,1,1.77-1.3l6,5a5.07,5.07,0,0,0,.91.56,5.44,5.44,0,0,0,3.4.41A6.41,6.41,0,0,0,28.87,29L62.09,13c-6.15-7.86-16.4-13-28-13C15.26,0,0,13.53,0,30.22c0,9.19,4.63,17.42,11.93,23A1.8,1.8,0,0,1,12.6,55C12.11,57.34,11,62.64,11,63A1.24,1.24,0,0,0,13,64h0a79.74,79.74,0,0,1,7.5-4.85,3.73,3.73,0,0,1,2.78-.26,37.78,37.78,0,0,0,10.84,1.57c18.83,0,34.09-13.53,34.09-30.22A27.4,27.4,0,0,0,64.41,16.41Z"/></g></g></svg>