<svg xmlns="http://www.w3.org/2000/svg" viewBox="0 0 208.04 70.45"><defs><style>.cls-1{fill:#b2b2b2;}</style></defs><title>Asset 3img</title><g id="Layer_2" data-name="Layer 2"><g id="Layer_1-2" data-name="Layer 1"><path class="cls-1" d="M208,68.61c-9.86-4.4-26.64-8.06-47.59-10.44h.61L159,58A510.5,510.5,0,0,0,104,55.2C57.6,55.2,17.68,60.71,0,68.61c10.17-3,24.18-5.62,40.78-7.48l4.66,9h3.77l5.34-10.3c5.55-.45,11.32-.83,17.26-1.13V70.45H97.43c7.67,0,10.72-4.25,10.72-9.48a11.09,11.09,0,0,0-.43-3.09l2,0V70.45h25.62c7.66,0,10.71-4.25,10.71-9.48a12.26,12.26,0,0,0-.12-1.73l1.73.12V70.45h4.66V59.71C175.5,61.56,194.94,64.68,208,68.61ZM47.3,64.45l-1.91-3.81c1.33-.13,2.67-.27,4-.39ZM98,65.37H76.34V58.45c8.61-.36,17.57-.56,26.77-.58a6.57,6.57,0,0,1,.46,2.48C103.57,62.63,102.6,65.37,98,65.37Zm43.53-5c0,2.28-1,5-5.59,5H114.28V58c9.37.15,18.43.49,27.08,1A7.31,7.31,0,0,1,141.51,60.35Z"/><path class="cls-1" d="M30.45,41.22l7.63,14.72c1.52-.22,3.06-.42,4.64-.62L33.58,37.13c-.72-1-1.48-2.12-3.22-2.12H25.87V57.92c1.49-.28,3-.55,4.58-.82Z"/><path class="cls-1" d="M64.2,41.22v12l4.57-.3V35H64c-1.74,0-2.22,1.14-2.9,2.12L52.44,54.24c1.73-.16,3.47-.33,5.25-.48Z"/><path class="cls-1" d="M103.1,52c2.66-1.25,4.24-3.82,4.24-7.67,0-3.47-1.27-9.27-10.46-9.27H71.81V52.77c9.68-.53,19.92-.82,30.52-.82Zm-5.54-2.12H76.34V40.08H97.56c3.6,0,5.34,1.92,5.34,4.93S101,49.83,97.56,49.83Z"/><path class="cls-1" d="M140.2,52.31c3.17-1.08,5.08-3.78,5.08-8,0-3.47-1.27-9.27-10.46-9.27H109.75V52c11.51.15,22.52.63,32.76,1.4A9.15,9.15,0,0,0,140.2,52.31Zm-4.7-2.48H114.28V40.08H135.5c3.6,0,5.33,1.92,5.33,4.93S138.93,49.83,135.5,49.83Z"/><path class="cls-1" d="M183.47,46.56c0-6.32-3.56-11.55-11-11.55H147.69V53.83c10.69.93,20.44,2.18,28.91,3.69C181.22,55.93,183.47,51.58,183.47,46.56Zm-31.12,6.53v-13h20.36c4.24,0,5.93,3.53,5.93,6.48s-1.65,6.53-5.93,6.53Z"/><path class="cls-1" d="M25.87,61.87v8.58h4.58V61.13C28.86,61.37,27.34,61.62,25.87,61.87Z"/><path class="cls-1" d="M64.2,57.62V70.45h4.57V57.33Z"/><path class="cls-1" d="M103.08,41.37l.07,0c0-.14.08-.27.11-.41a4.26,4.26,0,0,0-.75-.78c0,.08-.05.17-.08.25C102.66,40.76,102.88,41.06,103.08,41.37Z"/><path class="cls-1" d="M160,33.59a78,78,0,0,0-15.82-17.75,72.32,72.32,0,0,0-9.49-6.63C132.52,8.08,131,7,129,6.23A66.29,66.29,0,0,0,100.94,0C75.13,0,51.36,15.14,38.21,39.73L38.63,41q1.53-2.93,3.26-5.67A27.66,27.66,0,0,0,44,38c-1.45,2.11-2.83,4.32-4.15,6.61l.41,1.2c1.42-2.51,2.89-4.86,4.42-7.08a54,54,0,0,0,8,6.85C51,48.32,49.46,51.26,48,54.31l1.12-.14c1.44-2.85,2.91-5.56,4.43-8.08.47.33,1,.66,1.47,1l.45-.9L54,45.24A95.41,95.41,0,0,1,69.58,25.73a105.07,105.07,0,0,0,11.73,7c-.34.42-.68.88-1,1.31h1.22c.23-.28.45-.58.68-.86l1.73.86h2.31q-1.73-.81-3.39-1.65a93,93,0,0,1,14.6-14.16,117.91,117.91,0,0,0,12.17,5.69,91.35,91.35,0,0,0-5.45,11.35,7.28,7.28,0,0,1,.82.47,91.23,91.23,0,0,1,5.52-11.47c3.19,1.26,6.52,2.43,9.94,3.49,1.93.6,3.86,1.15,5.76,1.65,0,1.5-.12,3.09-.25,4.72h.92c.13-1.55.22-3.06.25-4.48,4.13,1.07,8.16,1.9,12,2.5.22.65.43,1.31.62,2h1c-.17-.62-.36-1.23-.55-1.83,2.45.36,4.83.61,7.1.77.24.36.46.71.68,1.06h1.15c-.2-.33-.41-.65-.62-1,1.24.07,2.46.1,3.63.1.85,0,1.67,0,2.48,0l.66.94h1.18c-.22-.33-.44-.66-.69-1,.94-.06,1.84-.15,2.71-.26.28.41.53.84.8,1.26h1.12ZM147.55,20c-.63,0-1.26-.06-1.91-.1-1.84-2.16-3.75-4.26-5.66-6.15A73.4,73.4,0,0,1,147.55,20ZM128.7,7.18v0l.08,0C130.57,8.05,132.32,9,134,10a64.68,64.68,0,0,1,10.19,9.86c-1.76-.15-3.59-.38-5.47-.69A81.63,81.63,0,0,0,127.49,6.64ZM125.08,6c3.84,2.72,8.19,7.61,12.24,12.86-1.32-.24-2.67-.51-4-.82a111.31,111.31,0,0,0-8.72-11.71l-.36-.43Zm-1.2,1A112.15,112.15,0,0,1,132,17.75c-1.93-.46-3.87-1-5.83-1.57-.1-.59-.22-1.15-.33-1.67a40.68,40.68,0,0,0-2.73-8.46Zm1.22,8.82c-2.68-.84-5.28-1.76-7.77-2.75.88-1.33,1.68-2.52,2.36-3.54C120.92,7.74,121.62,6.69,122,6A40,40,0,0,1,125.1,15.87ZM119,9l-2.52,3.79c-2.1-.86-4.12-1.77-6-2.71A61.66,61.66,0,0,1,121,5.84C120.55,6.59,119.76,7.75,119,9Zm-9.64.51c-1.58-.81-3.08-1.66-4.47-2.51a67.9,67.9,0,0,1,13.48-1.35A67.15,67.15,0,0,0,109.31,9.47Zm-5.71-3.3c-.81-.52-1.58-1.06-2.3-1.59a85.85,85.85,0,0,1,19.12,0A68.66,68.66,0,0,0,103.6,6.17ZM82.53,6A78.83,78.83,0,0,1,96.05,3.44l2-.19.69.6a85,85,0,0,0-8.38,1.58c-2.26.55-4.47,1.2-6.64,1.93C83.33,6.91,82.91,6.46,82.53,6Zm.23,1.68A75.94,75.94,0,0,0,62.34,18.59q-1.08-1.05-2-2.1A73.71,73.71,0,0,1,81.51,6.31C81.9,6.77,82.31,7.24,82.76,7.7Zm7.81-1.25a82.39,82.39,0,0,1,9.31-1.71c.75.58,1.55,1.16,2.39,1.74-2.06.49-4.2,1.1-6.39,1.85a71.8,71.8,0,0,0-7.45,3,44.88,44.88,0,0,1-3.84-3.21C86.65,7.48,88.65,6.91,90.57,6.45Zm8.92-3.29a84.82,84.82,0,0,1,9-.09c-2.56.06-5.36.25-8.32.61ZM100.94,1a65.58,65.58,0,0,1,14,1.51A89.36,89.36,0,0,0,98.4,2.2c-.39-.36-.76-.71-1.1-1.07C98.51,1.06,99.72,1,100.94,1Zm-4.89.18c.33.37.67.73,1,1.1L96,2.41A81.3,81.3,0,0,0,81.81,5.14c-.26-.34-.51-.67-.73-1A65.81,65.81,0,0,1,96.05,1.21ZM80.14,4.44c.21.33.44.66.68,1A73.08,73.08,0,0,0,59.7,15.71l-.12-.15A69.4,69.4,0,0,1,80.14,4.44ZM58.82,16.16l.09.11c-.78.57-1.55,1.15-2.31,1.75C57.33,17.39,58.07,16.76,58.82,16.16Zm-14.26,21a26.93,26.93,0,0,1-2.12-2.72c.68-1,1.38-2.07,2.09-3.07h0a76.56,76.56,0,0,1,15-14.28c.61.7,1.27,1.41,2,2.13l-.21.15A82.16,82.16,0,0,0,44.56,37.13Zm24.14-12A96.29,96.29,0,0,0,53.22,44.68a54.56,54.56,0,0,1-8-6.81A81.31,81.31,0,0,1,62.31,19.92a60.89,60.89,0,0,0,6.4,5.2Zm.75-.7a60.86,60.86,0,0,1-6.35-5.11A75.36,75.36,0,0,1,83.56,8.51a43.63,43.63,0,0,0,3.89,3.35A74.88,74.88,0,0,0,69.45,24.44ZM82,31.93A106.12,106.12,0,0,1,70.31,25a74.91,74.91,0,0,1,18.06-12.5,76.83,76.83,0,0,0,8.13,5.17A94.33,94.33,0,0,0,82,31.93Zm15.4-14.88a79,79,0,0,1-8-5,70.67,70.67,0,0,1,6.74-2.73,69.78,69.78,0,0,1,7.34-2.08c1.47.95,3.07,1.88,4.78,2.79A80.91,80.91,0,0,0,97.36,17.05Zm12.75,6a119.06,119.06,0,0,1-11.8-5.46,79.67,79.67,0,0,1,11-7c2,1.05,4.25,2.06,6.56,3C114.08,16.36,112.06,19.58,110.11,23Zm10.57,3.74c-3.33-1-6.57-2.17-9.68-3.39,2-3.44,4-6.66,5.77-9.39,2.65,1.07,5.44,2.06,8.32,2.95l.22.07a64.49,64.49,0,0,1,.91,11.35Q123.46,27.62,120.68,26.76Zm6.46,1.83a66.24,66.24,0,0,0-.82-11.29q3.24,1,6.42,1.69a64.8,64.8,0,0,1,6,12C135,30.42,131.1,29.61,127.14,28.59Zm12.64,2.58A63.93,63.93,0,0,0,134,19.28c1.42.3,2.82.57,4.2.8,3.11,4.11,6,8.35,8.31,11.87C144.38,31.78,142.11,31.52,139.78,31.17Zm8,.87c-2.21-3.42-5-7.61-8.12-11.74,1.91.28,3.77.49,5.54.62,3.24,3.84,6.27,7.87,8.68,11.25C152,32.22,149.9,32.17,147.76,32Zm7.27.08c-2.32-3.28-5.27-7.26-8.48-11.12.71,0,1.41.06,2.09.07a76.72,76.72,0,0,1,9.14,10.84C156.9,32,156,32.08,155,32.12Z"/></g></g></svg>