<svg xmlns="http://www.w3.org/2000/svg" xmlns:xlink="http://www.w3.org/1999/xlink" viewBox="0 0 2092 375.7"><defs><style>.cls-1,.cls-11,.cls-12,.cls-13,.cls-14,.cls-15,.cls-16,.cls-2,.cls-6{fill:none;}.cls-2{stroke:#e7eeea;}.cls-11,.cls-14,.cls-15,.cls-2,.cls-6{stroke-miterlimit:10;}.cls-3{clip-path:url(#clip-path);}.cls-4{fill:url(#linear-gradient);}.cls-5{clip-path:url(#clip-path-2);}.cls-6{stroke:#39b180;stroke-width:0.74px;}.cls-17,.cls-18,.cls-6{opacity:0.5;}.cls-7{fill:#3cb47e;}.cls-17,.cls-8{fill:#39b180;}.cls-9{fill:#fff;}.cls-10{fill:#bff7d8;}.cls-11,.cls-13,.cls-15{stroke:#fff;}.cls-11,.cls-12,.cls-13{stroke-width:1.37px;}.cls-12,.cls-14,.cls-16{stroke:#bff7d8;}.cls-12,.cls-13,.cls-16{stroke-linecap:round;stroke-linejoin:round;}.cls-14,.cls-15,.cls-16{stroke-width:1.16px;}</style><clipPath id="clip-path" transform="translate(-1 -0.99)"><polygon class="cls-1" points="919.06 376.57 0 376.57 0 1.96 825.6 1.96 919.06 376.57"/></clipPath><linearGradient id="linear-gradient" x1="458.77" y1="-66.25" x2="458.77" y2="586.79" gradientUnits="userSpaceOnUse"><stop offset="0" stop-color="#8feba6"/><stop offset="1" stop-color="#49d696"/></linearGradient><clipPath id="clip-path-2" transform="translate(-1 -0.99)"><polygon class="cls-1" points="917.06 374.61 376.2 374.61 376.2 0 823.61 0 917.06 374.61"/></clipPath></defs><title>Asset 5img</title><g id="Layer_2" data-name="Layer 2"><g id="Layer_1-2" data-name="Layer 1"><line class="cls-2" x1="810.05" y1="375.14" x2="2092" y2="375.14"/><g class="cls-3"><polygon class="cls-4" points="917.54 375.7 0 375.7 0 0 824.08 0 917.54 375.7"/></g><g class="cls-5"><path class="cls-6" d="M743.06,43.09V311.66a14.69,14.69,0,0,1-14.68,14.69H620.07a14.69,14.69,0,0,1-13.59-9.1,11.61,11.61,0,0,1-.42-1.17,6.14,6.14,0,0,0,2.36-1.64l1.59-1.77a6.36,6.36,0,0,0,1.27-6.33l-.54-1.55a.64.64,0,0,1,0-.45s.9-2.47-3-6.76a6.69,6.69,0,0,1-2.35,1.05v-1.37a5.22,5.22,0,0,0,1.86-.95l.13-.1.06,0,4.84-5.93a4.21,4.21,0,0,0,.05-5.29l-1.26-1.61a.63.63,0,0,1-.12-.5,14,14,0,0,0-1.06-8,81.06,81.06,0,0,0-4.5-7.23v-38.3a14.31,14.31,0,0,0,1.36-3.34c1.79-6.52-1-10.53-1-10.57l-.35-.54V43.09a14.09,14.09,0,0,1,14-14.05h12.76c2.15,0,2.7,1.2,3.69,3.11l1.6,4.34a5.61,5.61,0,0,0,5.36,3.76h42.44a8.58,8.58,0,0,1,1.35.11,8.83,8.83,0,0,1,1.37-.11h17.61a5.75,5.75,0,0,0,4.2-1.83A5.66,5.66,0,0,0,711,36.49l1.6-4.34c1-1.91,1.54-3.11,3.7-3.11H729A14.09,14.09,0,0,1,743.06,43.09Z" transform="translate(-1 -0.99)"/><path class="cls-7" d="M595.51,159.64l1.24,1v-1.72l-1.24-1c-6.84-5.79-18.29-16.46-21.77-25.57a.62.62,0,0,0-.29-.33c-.08-.05-8.37-5-5.21-12.82a5.76,5.76,0,0,1,3.3-3.33c5.22-2.16,13.77,1.46,13.86,1.49l.08,0A65.26,65.26,0,0,1,594,120.5c.41.18.83.38,1.23.59v-1.48L594,119a65.59,65.59,0,0,0-8.08-2.93c-.75-.31-9.25-3.79-14.84-1.49a7.2,7.2,0,0,0-4,4.07c-3.28,8.15,4.23,13.44,5.58,14.32C576.46,142.86,588.78,154,595.51,159.64Z" transform="translate(-1 -0.99)"/><path class="cls-7" d="M595.51,180.79a.66.66,0,0,0,.3-.36l.94-3.17v-4.63l-1.19,4,.36,2.62-.41.15Z" transform="translate(-1 -0.99)"/><path class="cls-7" d="M596.75,253l-1.1-1.55a9.76,9.76,0,0,0-.14-1.44,9.27,9.27,0,0,0-1.65-3.91,10.28,10.28,0,0,0-4.59-3.67.62.62,0,1,0-.44,1.16,9.14,9.14,0,0,1,4,3.25,8.12,8.12,0,0,1,1.54,4.82.64.64,0,0,0,.12.35l1,1.39c.35.48.76,1.07,1.24,1.74Z" transform="translate(-1 -0.99)"/><path class="cls-7" d="M817.21,376.58h.14l.33,0h.14l.31,0,.35,0c-2.75-4.18-5.1-7.66-6.65-9.93a10.06,10.06,0,0,1-1.7-6.17l2.39-40.84c0-.48.07-.93.14-1.39.15-1.15.6-3.29,1.17-6,2.55-12.2,7.29-34.91,3.6-46.63-.36-1.12-2.25-4.41-5.13-9.37-6.5-11.25-17.38-30.06-17.55-37.27-.24-10.39-4.34-16.83-8.67-23.63l-.21-.34a51.09,51.09,0,0,1-5.48-10.73c-.23-.6-.45-1.19-.7-1.79-1.21-2.95-5.18-9.79-5.9-11,1.53-21.64-6.78-36.38-10.82-39.78a2.93,2.93,0,0,0-2.47-1c-3,.75-3.44,8.84-3.5,11.5-1.63.53-3.06,2.28-4.06,3.87a23.06,23.06,0,0,0-1.24,2.25v1.45h0V221a1.08,1.08,0,0,0,0,.19c.39,1.23.78,2.4,1.17,3.49,2.85,7.93,5.75,12,6.3,12.77l1,4.52a47.42,47.42,0,0,0-7.33-5.21l-.25-.15-.65,1.14.9.53c2.46,1.5,6.89,4.46,7.94,6.42h0l.72,3.15-3.06,14.76a.62.62,0,0,0,.49.73h.12a.61.61,0,0,0,.61-.49L762.86,248a.82.82,0,0,0,0-.27l-.83-3.61h0s0,0,0,0l-1.6-7a.82.82,0,0,0-.12-.25c0-.05-4-5.23-7.32-15.89v-71.3a.54.54,0,0,0,0-.22.81.81,0,0,0-.17-.24l.17-.36c.89-1.84,2.88-5.15,4.81-5.41a.66.66,0,0,0,.57-.66c0-4.21.8-10.33,2.49-10.75.13,0,.57.07,1.31.69,3.9,3.28,11.91,17.63,10.34,38.89a.65.65,0,0,0,.09.38c.05.07,4.65,7.93,5.92,11,.24.59.46,1.17.69,1.75a51.85,51.85,0,0,0,5.6,11l.2.34c4.24,6.65,8.24,12.93,8.47,22.95.18,7.54,10.74,25.81,17.73,37.9a101.5,101.5,0,0,1,5,9.11c3.58,11.38-1.29,34.74-3.63,46-.57,2.73-1,4.89-1.19,6.09-.07.49-.12,1-.15,1.49l-2.39,40.84a11.37,11.37,0,0,0,1.93,7c1.46,2.14,3.64,5.37,6.19,9.24Z" transform="translate(-1 -0.99)"/><path class="cls-7" d="M646.33,376.6h1.17l-.35-.45a100,100,0,0,1-8.68-13.09c-4-7.23-12.19-17.16-12.32-17.31s-3.83-3.88-8.41-8.8c-.37-.42-.76-.84-1.16-1.26a17.88,17.88,0,0,1-2-.17c.42.47.84.92,1.26,1.37,4.81,5.21,8.92,9.39,9.29,9.75.08.1,8.25,9.93,12.13,17.05a102.61,102.61,0,0,0,8.48,12.87A3.19,3.19,0,0,1,646.33,376.6Z" transform="translate(-1 -0.99)"/><path class="cls-7" d="M605.38,212.55l-8.63-13.45-1.24-1.93-1-1.62a14.59,14.59,0,0,0-8-6.13l-.13,0a.56.56,0,0,0-.71.43.68.68,0,0,0,.47.79,13.33,13.33,0,0,1,7.33,5.62l2.08,3.25,1.24,1.93,8.63,13.44.35.54s2.8,4.05,1,10.57a14.31,14.31,0,0,1-1.36,3.34,8.49,8.49,0,0,1-4.84,4.2.5.5,0,0,0-.25.13l-3.54,3-.84.7c-.13.11-.27.22-.4.31v1.45a6.66,6.66,0,0,0,1.2-.81l0,0,4.23-3.57a9.33,9.33,0,0,0,4.4-3.17,14.21,14.21,0,0,0,2.56-5.21c1.93-7.07-1.08-11.43-1.19-11.58Z" transform="translate(-1 -0.99)"/><path class="cls-7" d="M603,317.77l.64,0a7.69,7.69,0,0,0,5.67-2.53l1.59-1.76a7.65,7.65,0,0,0,1.51-7.57l-.47-1.35c.22-.84.52-3.66-3.37-7.89l4.62-5.66a5.42,5.42,0,0,0,.06-6.83l-1.08-1.39a15.3,15.3,0,0,0-1.21-8.53,104.22,104.22,0,0,0-5.62-8.91c-3.16-4.67-6.78-9.81-8.63-12.42v2.14c2.24,3.18,5.76,8.22,8.63,12.5a81.06,81.06,0,0,1,4.5,7.23,14,14,0,0,1,1.06,8,.63.63,0,0,0,.12.5l1.26,1.61a4.21,4.21,0,0,1-.05,5.29l-4.84,5.93-.06,0-.13.1a5.22,5.22,0,0,1-1.86.95,5.39,5.39,0,0,1-5-1.05.67.67,0,0,0-.71-.08,7.06,7.06,0,0,1-2.91.42,9.81,9.81,0,0,1-1.24-.14,12.35,12.35,0,0,1-5.36-2.58c-5.57-4.37-16.11-17.24-16.31-17.48l-4.37-6a18,18,0,0,1-3.53-10.7c0-4.47.42-10.58,2.49-14.34,3.22-5.88,10.44-12.08,12.23-13.56,2.59,2.42,5.46,4.86,7.45,6.52a6.71,6.71,0,0,0,7.4.77v-1.45a5.44,5.44,0,0,1-6.61-.28c-2.06-1.71-5-4.25-7.68-6.73a.75.75,0,0,0-.13-.18c-.13-.11-13.12-11.33-16.74-20.76-1.1-2.9-.84-6.3.79-10.1a23.56,23.56,0,0,1,13.69-12.69l16.56-6a.27.27,0,0,0,.12-.06v-1.38l-17.13,6.21A24.92,24.92,0,0,0,563.93,199c-1.77,4.13-2,7.86-.81,11.09,3.33,8.68,13.87,18.42,16.52,20.77-2.12,1.76-9.1,7.82-12.37,13.79-2.2,4-2.66,10.36-2.65,15a19.31,19.31,0,0,0,3.79,11.47l5.07,6.93c-1.21,1.77-5.74,8.91-4.58,15.12A26.17,26.17,0,0,0,573.2,304a1,1,0,0,0,.15.14c.15.1,14.72,10,18.65,12.34a10.44,10.44,0,0,0,3.68,1.32q-.09-.67-.12-1.38a8.56,8.56,0,0,1-2.88-1.08c-3.74-2.23-17.25-11.39-18.5-12.23a26,26,0,0,1-4-10.12c-1-5.39,2.88-11.87,4.2-13.88,3.2,3.83,10.48,12.3,14.94,15.8a13.4,13.4,0,0,0,6.17,2.88,8,8,0,0,0,1.24.13,8.71,8.71,0,0,0,3.08-.41,6.72,6.72,0,0,0,4,1.33,7.08,7.08,0,0,0,1.52-.17,6.69,6.69,0,0,0,2.35-1.05c3.93,4.29,3,6.75,3,6.76a.64.64,0,0,0,0,.45l.54,1.55a6.36,6.36,0,0,1-1.27,6.33l-1.59,1.77a6.14,6.14,0,0,1-2.36,1.64,6.34,6.34,0,0,1-3,.45l-1.76,0c-.17-.23-1.21-.13-1.94,0l-2.59,0a14.34,14.34,0,0,0,.14,1.47,13.24,13.24,0,0,0,3-.18h.49C600.69,318.18,603,317.77,603,317.77Z" transform="translate(-1 -0.99)"/><path class="cls-8" d="M731.08,18.81H617.37a21.88,21.88,0,0,0-21.86,21.86V58.82A2.17,2.17,0,0,0,594,60.9V72a2.17,2.17,0,0,0,1.55,2.08V86.23A2.17,2.17,0,0,0,594,88.31v15.26a2.17,2.17,0,0,0,1.55,2.08v8.83a2.16,2.16,0,0,0-1.55,2.08v15.26a2.17,2.17,0,0,0,1.55,2.08v65.57l1.24,1.93v-68a.62.62,0,0,0-.62-.62.94.94,0,0,1-.94-.93V116.56a.93.93,0,0,1,.94-.93.62.62,0,0,0,.62-.62v-9.89a.62.62,0,0,0-.62-.62.93.93,0,0,1-.94-.93V88.31a.94.94,0,0,1,.94-.94.62.62,0,0,0,.62-.62V73.55a.62.62,0,0,0-.62-.61.94.94,0,0,1-.94-.93V60.9a.94.94,0,0,1,.94-.93.62.62,0,0,0,.62-.62V40.67a20.64,20.64,0,0,1,20.62-20.62H731.08A20.64,20.64,0,0,1,751.7,40.67V92.41a.62.62,0,0,0,.62.62.93.93,0,0,1,.93.93v33.63a.93.93,0,0,1-.93.93.62.62,0,0,0-.62.62v186a20.64,20.64,0,0,1-20.62,20.62H617.37l-.79,0a17.88,17.88,0,0,1-2-.17,20.65,20.65,0,0,1-17.69-17.62,14.34,14.34,0,0,1-.14-1.47l-1.1,0a.32.32,0,0,1-.14,0q0,.71.12,1.38a21.87,21.87,0,0,0,20.21,19.13c.48,0,1,.06,1.48.06H731.08a21.89,21.89,0,0,0,21.86-21.86V129.67a2.18,2.18,0,0,0,1.54-2.08V94a2.18,2.18,0,0,0-1.54-2.08V40.67a21.89,21.89,0,0,0-21.86-21.86ZM596.75,236.6l-.84.7c-.13.11-.27.22-.4.31.13-.09.27-.2.4-.31l.84-.7v0Zm0,0-.84.7c-.13.11-.27.22-.4.31.13-.09.27-.2.4-.31l.84-.7v0Zm0,0-.84.7c-.13.11-.27.22-.4.31v1.45a6.66,6.66,0,0,0,1.2-.81l0,0V236.6Zm-1.24,1v0Zm0,0v0Zm1.24.61v0Zm0,0v0Zm0,0,0,0a6.66,6.66,0,0,1-1.2.81V250a9.76,9.76,0,0,1,.14,1.44l1.1,1.55V238.22Zm-1.24.84v0Zm0,0v0Zm0,0v0Zm0,10.9a9.76,9.76,0,0,1,.14,1.44l1.1,1.55-1.1-1.55a9.76,9.76,0,0,0-.14-1.44Zm0,0a9.76,9.76,0,0,1,.14,1.44l1.1,1.55-1.1-1.55a9.76,9.76,0,0,0-.14-1.44Zm0,0a9.76,9.76,0,0,1,.14,1.44l1.1,1.55-1.1-1.55a9.76,9.76,0,0,0-.14-1.44Zm0,0v3.39c.35.48.76,1.07,1.24,1.74-.48-.67-.89-1.26-1.24-1.74V250Zm1.24,3v0Z" transform="translate(-1 -0.99)"/></g><path class="cls-9" d="M852.19,285.78l.09,25c0,1.4-1,4.82-1.76,7a12.9,12.9,0,0,0-.66,4.17l.06,18.08a2.48,2.48,0,0,1-2.48,2.49l-24.06.09a3.42,3.42,0,0,1-3.43-3.41l-.06-16.53a16.7,16.7,0,0,0-.81-5.11,32.76,32.76,0,0,1-1.69-6.74l-.08-25,34.88-.12m-30.53,23.83,26.34-.09a1.82,1.82,0,0,0,1.81-1.82l-.06-17.93a1.81,1.81,0,0,0-1.82-1.8l-26.34.09a1.81,1.81,0,0,0-1.81,1.82l.06,17.93a1.81,1.81,0,0,0,1.82,1.8m30.53-25.32-34.89.12a1.49,1.49,0,0,0-1.48,1.5l.09,24.95c0,.45,0,1.83,1.75,7.19a15.3,15.3,0,0,1,.75,4.66l.05,16.53a4.92,4.92,0,0,0,4.92,4.89l24.07-.09a4,4,0,0,0,4-4L851.35,322a11.55,11.55,0,0,1,.58-3.7c1.22-3.72,1.84-6.24,1.84-7.48l-.09-25a1.49,1.49,0,0,0-1.49-1.48Zm-30.53,23.83a.32.32,0,0,1-.33-.32l-.06-17.93a.32.32,0,0,1,.32-.32l26.34-.09a.32.32,0,0,1,.33.32l.06,17.93a.32.32,0,0,1-.32.32l-26.34.09Zm2.28,24.17,4.5,0a.58.58,0,0,0,.58-.58v-2.64a.58.58,0,0,0-.58-.58l-4.5,0a.58.58,0,0,0-.58.58v2.64a.58.58,0,0,0,.58.58m.37-2.85h3.74v1.91h-3.73v-1.91Zm8.35,2.85,4.51,0a.57.57,0,0,0,.57-.58v-2.64a.59.59,0,0,0-.58-.58l-4.51,0a.57.57,0,0,0-.57.58v2.64a.58.58,0,0,0,.57.58m.38-2.85h3.73v1.91h-3.73v-1.91Zm8.67,0h3.74v1.91h-3.73v-1.91Zm-.35,2.85,4.51,0a.57.57,0,0,0,.57-.58v-2.64a.58.58,0,0,0-.58-.58l-4.5,0a.57.57,0,0,0-.57.58v2.64a.59.59,0,0,0,.58.58m-17.42-6.86,4.5,0a.58.58,0,0,0,.58-.58v-2.65a.57.57,0,0,0-.58-.57h-4.5a.59.59,0,0,0-.58.58v2.65a.58.58,0,0,0,.58.58m.37-2.85h3.74v1.9l-3.73,0v-1.91Zm8.35,2.85,4.51,0a.57.57,0,0,0,.57-.58v-2.65a.58.58,0,0,0-.58-.57h-4.51a.57.57,0,0,0-.57.58v2.65a.58.58,0,0,0,.57.58m.38-2.85h3.73v1.9l-3.73,0v-1.91Zm8.67,0h3.74v1.9l-3.73,0v-1.91Zm-.35,2.85,4.51,0a.57.57,0,0,0,.57-.58v-2.65a.57.57,0,0,0-.58-.57h-4.5a.57.57,0,0,0-.57.58v2.65a.59.59,0,0,0,.58.58m-17.42-6.92h4.5a.59.59,0,0,0,.58-.58v-2.65a.58.58,0,0,0-.58-.58l-4.5,0a.58.58,0,0,0-.58.58v2.65a.58.58,0,0,0,.58.57m.37-2.85h3.74v1.91h-3.73v-1.91Zm8.35,2.85h4.51a.57.57,0,0,0,.57-.58v-2.65a.59.59,0,0,0-.58-.58l-4.51,0a.57.57,0,0,0-.57.58v2.65a.58.58,0,0,0,.57.57m.38-2.85h3.73v1.91h-3.73v-1.91Zm8.67,0h3.74v1.91h-3.73v-1.91Zm-.35,2.85h4.51a.57.57,0,0,0,.57-.58v-2.65a.58.58,0,0,0-.58-.58l-4.5,0a.57.57,0,0,0-.57.58v2.65a.59.59,0,0,0,.58.57" transform="translate(-1 -0.99)"/><path class="cls-10" d="M858.39,305.47a.74.74,0,0,0,.74-.74l-.06-17.94a.75.75,0,0,0-1.5,0l.07,17.94A.74.74,0,0,0,858.39,305.47Z" transform="translate(-1 -0.99)"/><path class="cls-10" d="M862.85,305.46a.75.75,0,0,0,.74-.75l-.06-17.94a.75.75,0,1,0-1.49,0l.06,17.93A.75.75,0,0,0,862.85,305.46Z" transform="translate(-1 -0.99)"/><path class="cls-10" d="M867.91,286.76a.75.75,0,0,0-.75-.74.74.74,0,0,0-.74.74l.09,26.34a.75.75,0,0,0,1.49,0Z" transform="translate(-1 -0.99)"/><path class="cls-10" d="M811.3,286.21a.75.75,0,0,0-.74.75l.06,17.93a.75.75,0,1,0,1.49,0L812.05,287A.75.75,0,0,0,811.3,286.21Z" transform="translate(-1 -0.99)"/><path class="cls-10" d="M806.91,305.65a.74.74,0,0,0,.74-.74L807.59,287a.75.75,0,0,0-1.5,0l.07,17.93A.74.74,0,0,0,806.91,305.65Z" transform="translate(-1 -0.99)"/><path class="cls-10" d="M802.46,286.24a.75.75,0,0,0-.74.75l.09,26.34a.75.75,0,0,0,1.49,0L803.21,287A.75.75,0,0,0,802.46,286.24Z" transform="translate(-1 -0.99)"/><path class="cls-10" d="M860.15,309.43h-2a.36.36,0,0,0-.37.37.37.37,0,0,0,.37.37h1.64v1h-.86a.37.37,0,0,0-.37.37.38.38,0,0,0,.37.38h.86V313h-1.63a.38.38,0,0,0,0,.75h2a.37.37,0,0,0,.37-.37V309.8A.38.38,0,0,0,860.15,309.43Z" transform="translate(-1 -0.99)"/><path class="cls-10" d="M863.85,313.2v-1.69h0a.38.38,0,0,0-.38-.38h-1.63v-1h1.63a.38.38,0,0,0,.37-.37.37.37,0,0,0-.37-.37h-2a.38.38,0,0,0-.37.38v3.53a.38.38,0,0,0,.38.37h2a.37.37,0,0,0,.37-.37s0,0,0-.06S863.85,313.22,863.85,313.2Zm-2-.25v-1.06h1.26V313Z" transform="translate(-1 -0.99)"/><path class="cls-10" d="M808.19,313.14h-1.64v-1.07h1.63a.38.38,0,0,0,.38-.37h0V310a.38.38,0,0,0-.37-.37h-2a.37.37,0,1,0,0,.74h1.64v1h-1.63a.38.38,0,0,0-.37.38v1.81a.37.37,0,0,0,.38.37h2a.36.36,0,0,0,.37-.37A.38.38,0,0,0,808.19,313.14Z" transform="translate(-1 -0.99)"/><path class="cls-10" d="M811.87,311.79h0a.38.38,0,0,0-.38-.37h-1.63v-1.07h1.63a.38.38,0,0,0,0-.75h-2a.38.38,0,0,0-.37.37v1.81a.37.37,0,0,0,.37.37h1.63v1H809.5a.36.36,0,0,0-.37.37.37.37,0,0,0,.37.37h2a.37.37,0,0,0,.37-.37v-1.71Z" transform="translate(-1 -0.99)"/><rect class="cls-11" x="556.78" y="60.89" width="5.29" height="5.29" rx="0.38" ry="0.38"/><path class="cls-9" d="M561,78.3a.38.38,0,0,0-.37-.38H550a.38.38,0,0,0-.38.38v9.84a.37.37,0,0,0,.38.37h6.35a.37.37,0,0,0,.38-.37V85a.38.38,0,0,1,.38-.37h3.52a.38.38,0,0,0,.37-.38Z" transform="translate(-1 -0.99)"/><path class="cls-9" d="M569.56,98.61h1.56a.38.38,0,0,0,.38-.38V86.8a.37.37,0,0,0-.38-.37H563.7a.37.37,0,0,0-.37.37v3.74a.38.38,0,0,1-.38.38h-4.16a.37.37,0,0,0-.37.38v6.94a.37.37,0,0,0,.37.38h10.77Z" transform="translate(-1 -0.99)"/><rect class="cls-9" x="565.14" y="76.94" width="5.36" height="5.36" rx="0.38" ry="0.38"/><rect class="cls-9" x="548.65" y="92.27" width="5.36" height="5.36" rx="0.38" ry="0.38"/><line class="cls-12" x1="511.15" y1="74.86" x2="523.41" y2="74.86"/><line class="cls-12" x1="572.14" y1="74.86" x2="584.41" y2="74.86"/><path class="cls-12" d="M520.12,58.38V51.09a2.72,2.72,0,0,1,2.72-2.73h7.74" transform="translate(-1 -0.99)"/><path class="cls-12" d="M566.41,48.36h7.29a2.72,2.72,0,0,1,2.72,2.72v7.74" transform="translate(-1 -0.99)"/><path class="cls-12" d="M530.14,104.29h-7.29a2.73,2.73,0,0,1-2.73-2.73V93.84" transform="translate(-1 -0.99)"/><path class="cls-12" d="M576.42,94.28v7.29a2.72,2.72,0,0,1-2.72,2.72H566" transform="translate(-1 -0.99)"/><rect class="cls-11" x="532.71" y="60.89" width="5.29" height="5.29" rx="0.38" ry="0.38"/><rect class="cls-13" x="525.69" y="53.85" width="19.14" height="19.14"/><rect class="cls-13" x="549.85" y="53.85" width="19.14" height="19.14"/><rect class="cls-11" x="532.71" y="84.75" width="5.29" height="5.29" rx="0.38" ry="0.38"/><rect class="cls-13" x="525.69" y="77.72" width="19.14" height="19.14"/><path class="cls-14" d="M504.56,239.29l25.64,21.88a3.5,3.5,0,0,0,4.57,0l25.43-21.79" transform="translate(-1 -0.99)"/><rect class="cls-15" x="502.41" y="237.23" width="58.15" height="37.25" rx="3.44" ry="3.44"/><path class="cls-16" d="M498,267.9c-4.4-4.15-4.59-17.73-.45-22.12" transform="translate(-1 -0.99)"/><path class="cls-16" d="M492.14,266.11c-3.38-3.19-3.53-15.17-.34-18.54" transform="translate(-1 -0.99)"/><path class="cls-16" d="M567.88,245.73c4.4,4.15,4.6,17.72.45,22.12" transform="translate(-1 -0.99)"/><path class="cls-16" d="M573.73,247.51c3.38,3.19,3.54,15.17.35,18.55" transform="translate(-1 -0.99)"/><rect class="cls-17" x="617.67" y="55.71" width="113" height="31.67" rx="3.83" ry="3.83"/><g class="cls-18"><rect class="cls-8" x="619.34" y="95.02" width="110.6" height="4.51" rx="2.26" ry="2.26"/><rect class="cls-8" x="619.34" y="104.8" width="110.6" height="4.51" rx="2.26" ry="2.26"/></g><rect class="cls-17" x="617.67" y="192.89" width="113" height="31.67" rx="3.83" ry="3.83"/><g class="cls-18"><rect class="cls-8" x="619.34" y="232.2" width="110.6" height="4.51" rx="2.26" ry="2.26"/><rect class="cls-8" x="619.34" y="241.98" width="110.6" height="4.51" rx="2.26" ry="2.26"/></g><g class="cls-18"><rect class="cls-8" x="615.83" y="132.54" width="18.06" height="18.06" rx="9.03" ry="9.03"/><rect class="cls-8" x="640.41" y="134.05" width="89.54" height="4.51" rx="2.26" ry="2.26"/><rect class="cls-8" x="640.41" y="143.83" width="89.54" height="4.51" rx="2.26" ry="2.26"/><rect class="cls-8" x="640.41" y="165.15" width="89.54" height="4.51" rx="2.26" ry="2.26"/><rect class="cls-8" x="640.41" y="154.42" width="89.54" height="4.51" rx="2.26" ry="2.26"/></g><g class="cls-18"><rect class="cls-8" x="615.83" y="269.72" width="18.06" height="18.06" rx="9.03" ry="9.03"/><rect class="cls-8" x="640.41" y="271.23" width="89.54" height="4.51" rx="2.26" ry="2.26"/><rect class="cls-8" x="640.41" y="281.01" width="89.54" height="4.51" rx="2.26" ry="2.26"/><rect class="cls-8" x="640.41" y="302.33" width="89.54" height="4.51" rx="2.26" ry="2.26"/><rect class="cls-8" x="640.41" y="291.6" width="89.54" height="4.51" rx="2.26" ry="2.26"/></g><path class="cls-9" d="M806.53,162.05a8.88,8.88,0,0,0-.56-3.32,7.51,7.51,0,0,0-1.71-2.57,11,11,0,0,0-2.88-2,42.41,42.41,0,0,0-4.9-2,25.21,25.21,0,0,1-4.88-2.14,6.92,6.92,0,0,1-2.42-2.31,7.06,7.06,0,0,1-.72-3.47,6.41,6.41,0,0,1,2.18-5,8.48,8.48,0,0,1,5.85-2,7.7,7.7,0,0,1,5.94,2.32,8.73,8.73,0,0,1,2.17,6.15V146h0a.87.87,0,0,0,1.69,0l0-.16v-.12A10.64,10.64,0,0,0,804,138.5a9.26,9.26,0,0,0-6.53-2.9V132a.82.82,0,0,0-.23-.58.9.9,0,0,0-1.31,0,.87.87,0,0,0-.24.6v3.61a9.87,9.87,0,0,0-6.39,2.49,8.1,8.1,0,0,0-2.56,6.24,8.83,8.83,0,0,0,.87,4.07,8.31,8.31,0,0,0,2.7,2.93,23.67,23.67,0,0,0,5.54,2.53,31,31,0,0,1,5.58,2.42,7.32,7.32,0,0,1,2.61,2.45,6.71,6.71,0,0,1,.77,3.36A6.38,6.38,0,0,1,802.5,167a8.53,8.53,0,0,1-5.84,2,9.83,9.83,0,0,1-6.81-2.25,7.88,7.88,0,0,1-2.48-6.22v-.44a.78.78,0,0,0-.23-.57.88.88,0,0,0-1.28,0,.83.83,0,0,0-.24.59v.75h0a9.63,9.63,0,0,0,2.76,7,11.24,11.24,0,0,0,7.53,2.85v4.25a.78.78,0,0,0,.23.58.83.83,0,0,0,.65.31.85.85,0,0,0,.65-.29.83.83,0,0,0,.24-.6v-4.28a10,10,0,0,0,6.36-2.57A8.11,8.11,0,0,0,806.53,162.05Z" transform="translate(-1 -0.99)"/></g></g></svg>